<svg width="960" height="289" viewBox="0 0 960 289" fill="none" xmlns="http://www.w3.org/2000/svg">
<path opacity="0.25" d="M476.257 123.904V92.0572H456.369V123.904H432.818V74.6409H415.547V37.8181H401.417V0H372.108V37.8181H357.978V74.6409H341.23V30.354H331.81V7.9617H326.053V30.354H292.558V171.674H266.913V156.746H251.212V171.674H225.568V123.904H179.512V92.0572H159.625V123.904H158.578V185.11H137.643V149.282H112.522V185.11H91.5879V74.6409H75.3637V37.8181H15.7008V74.6409H0V269.205H91.5879H158.578H225.568H292.558H341.23H432.818H499.808V123.904H476.257Z" transform="translate(905.499)" fill="#6C63FF"/>
<path opacity="0.4" d="M21.9811 0H0V11.9425H21.9811V0Z" transform="translate(915.443 86.0859)" fill="white"/>
<path opacity="0.4" d="M21.9811 0H0V11.9425H21.9811V0Z" transform="translate(915.443 109.473)" fill="white"/>
<path opacity="0.4" d="M21.9811 0H0V11.9425H21.9811V0Z" transform="translate(915.443 132.861)" fill="white"/>
<path opacity="0.4" d="M21.9811 0H0V11.9425H21.9811V0Z" transform="translate(915.443 156.248)" fill="white"/>
<path opacity="0.4" d="M21.9811 0H0V11.9425H21.9811V0Z" transform="translate(915.443 179.636)" fill="white"/>
<path opacity="0.4" d="M21.9811 0H0V11.9425H21.9811V0Z" transform="translate(915.443 203.023)" fill="white"/>
<path opacity="0.4" d="M21.9811 0H0V11.9425H21.9811V0Z" transform="translate(915.443 226.411)" fill="white"/>
<path opacity="0.4" d="M9.42047 0H0V18.909H9.42047V0Z" transform="translate(921.2 48.2678)" fill="white"/>
<path opacity="0.25" d="M476.257 123.904V92.0572H456.369V123.904H432.818V74.6409H415.547V37.8181H401.417V0H372.108V37.8181H357.978V74.6409H341.23V30.354H331.81V7.9617H326.053V30.354H292.558V171.674H266.913V156.746H251.212V171.674H225.568V123.904H179.512V92.0572H159.625V123.904H158.578V185.11H137.643V149.282H112.522V185.11H91.5879V74.6409H75.3637V37.8181H15.7008V74.6409H0V269.205H91.5879H158.578H225.568H292.558H341.23H432.818H499.808V123.904H476.257Z" transform="translate(405.501)" fill="#6C63FF"/>
<path opacity="0.4" d="M21.9811 0H0V11.9425H21.9811V0Z" transform="translate(415.445 86.0859)" fill="white"/>
<path opacity="0.4" d="M21.9811 0H0V11.9425H21.9811V0Z" transform="translate(486.622 98.0283) rotate(-180)" fill="white"/>
<path opacity="0.4" d="M21.9811 0H0V11.9425H21.9811V0Z" transform="translate(415.445 109.473)" fill="white"/>
<path opacity="0.4" d="M21.9811 0H0V11.9425H21.9811V0Z" transform="translate(486.622 121.416) rotate(-180)" fill="white"/>
<path opacity="0.4" d="M21.9811 0H0V11.9425H21.9811V0Z" transform="translate(415.445 132.861)" fill="white"/>
<path opacity="0.4" d="M21.9811 0H0V11.9425H21.9811V0Z" transform="translate(486.622 144.803) rotate(-180)" fill="white"/>
<path opacity="0.4" d="M21.9811 0H0V11.9425H21.9811V0Z" transform="translate(415.445 156.248)" fill="white"/>
<path opacity="0.4" d="M21.9811 0H0V11.9425H21.9811V0Z" transform="translate(486.622 168.191) rotate(-180)" fill="white"/>
<path opacity="0.4" d="M21.9811 0H0V11.9425H21.9811V0Z" transform="translate(415.445 179.636)" fill="white"/>
<path opacity="0.4" d="M21.9811 0H0V11.9425H21.9811V0Z" transform="translate(486.622 191.578) rotate(-180)" fill="white"/>
<path opacity="0.4" d="M21.9811 0H0V11.9425H21.9811V0Z" transform="translate(415.445 203.023)" fill="white"/>
<path opacity="0.4" d="M21.9811 0H0V11.9425H21.9811V0Z" transform="translate(486.622 214.966) rotate(-180)" fill="white"/>
<path opacity="0.4" d="M21.9811 0H0V11.9425H21.9811V0Z" transform="translate(415.445 226.411)" fill="white"/>
<path opacity="0.4" d="M21.9811 0H0V11.9425H21.9811V0Z" transform="translate(486.622 238.353) rotate(-180)" fill="white"/>
<path opacity="0.4" d="M51.2892 0H0V5.97127H51.2892V0Z" transform="translate(504.94 197.052)" fill="white"/>
<path opacity="0.4" d="M51.2892 0H0V5.97127H51.2892V0Z" transform="translate(504.94 206.009)" fill="white"/>
<path opacity="0.4" d="M51.2892 0H0V5.97127H51.2892V0Z" transform="translate(504.94 214.966)" fill="white"/>
<path opacity="0.4" d="M51.2892 0H0V5.97127H51.2892V0Z" transform="translate(638.919 200.038)" fill="white"/>
<path opacity="0.4" d="M51.2892 0H0V5.97127H51.2892V0Z" transform="translate(638.919 208.995)" fill="white"/>
<path opacity="0.4" d="M51.2892 0H0V5.97127H51.2892V0Z" transform="translate(638.919 217.952)" fill="white"/>
<path opacity="0.4" d="M51.2892 0H0V5.97127H51.2892V0Z" transform="translate(504.94 223.923)" fill="white"/>
<path opacity="0.4" d="M51.2892 0H0V5.97127H51.2892V0Z" transform="translate(504.94 232.88)" fill="white"/>
<path opacity="0.4" d="M51.2892 0H0V5.97127H51.2892V0Z" transform="translate(504.94 241.837)" fill="white"/>
<path opacity="0.4" d="M14.1307 0H0V17.4162H14.1307V0Z" transform="translate(575.07 135.349)" fill="white"/>
<path opacity="0.4" d="M14.1307 0H0V17.4162H14.1307V0Z" transform="translate(620.079 152.765) rotate(-180)" fill="white"/>
<path opacity="0.4" d="M14.1307 0H0V17.4162H14.1307V0Z" transform="translate(575.07 163.215)" fill="white"/>
<path opacity="0.4" d="M14.1307 0H0V17.4162H14.1307V0Z" transform="translate(620.079 180.631) rotate(-180)" fill="white"/>
<path opacity="0.4" d="M14.1307 0H0V17.4162H14.1307V0Z" transform="translate(575.07 191.081)" fill="white"/>
<path opacity="0.4" d="M14.1307 0H0V17.4162H14.1307V0Z" transform="translate(620.079 208.497) rotate(-180)" fill="white"/>
<path opacity="0.4" d="M14.1307 0H0V17.4162H14.1307V0Z" transform="translate(575.07 218.947)" fill="white"/>
<path opacity="0.4" d="M14.1307 0H0V17.4162H14.1307V0Z" transform="translate(620.079 236.363) rotate(-180)" fill="white"/>
<path opacity="0.4" d="M18.8409 0H0V22.8899H18.8409V0Z" transform="translate(698.059 41.799)" fill="white"/>
<path opacity="0.4" d="M18.8409 0H0V22.8899H18.8409V0Z" transform="translate(698.059 74.641)" fill="white"/>
<path opacity="0.4" d="M18.8409 0H0V22.8899H18.8409V0Z" transform="translate(698.059 107.483)" fill="white"/>
<path opacity="0.4" d="M18.8409 0H0V22.8899H18.8409V0Z" transform="translate(698.059 140.325)" fill="white"/>
<path opacity="0.4" d="M18.8409 0H0V22.8899H18.8409V0Z" transform="translate(698.059 173.167)" fill="white"/>
<path opacity="0.4" d="M18.8409 0H0V22.8899H18.8409V0Z" transform="translate(698.059 206.009)" fill="white"/>
<path opacity="0.4" d="M70.1301 0H0V19.4066H70.1301V0Z" transform="translate(757.46 88.5739)" fill="white"/>
<path opacity="0.4" d="M70.1301 0H0V19.4066H70.1301V0Z" transform="translate(757.722 130.373)" fill="white"/>
<path opacity="0.4" d="M70.1301 0H0V19.4066H70.1301V0Z" transform="translate(757.984 172.172)" fill="white"/>
<path opacity="0.4" d="M70.1301 0H0V19.4066H70.1301V0Z" transform="translate(758.245 213.971)" fill="white"/>
<path opacity="0.4" d="M9.42047 0H0V18.909H9.42047V0Z" transform="translate(421.202 48.2678)" fill="white"/>
<path opacity="0.4" d="M23.5512 0H0V28.8612H23.5512V0Z" transform="translate(881.758 135.349)" fill="white"/>
<path opacity="0.4" d="M23.5512 0H0V28.8612H23.5512V0Z" transform="translate(881.758 177.148)" fill="white"/>
<path opacity="0.4" d="M23.5512 0H0V28.8612H23.5512V0Z" transform="translate(881.758 218.947)" fill="white"/>
<path opacity="0.1" d="M36.6145 4.79444H33.0138C33.3544 4.8092 33.6946 4.75816 34.0138 4.64441C34.3331 4.53066 34.6248 4.35655 34.8713 4.13261C35.1178 3.90867 35.314 3.63955 35.4481 3.34149C35.5821 3.04343 35.6512 2.72263 35.6512 2.39846C35.6512 2.0743 35.5821 1.75349 35.4481 1.45544C35.314 1.15738 35.1178 0.888245 34.8713 0.664305C34.6248 0.440365 34.3331 0.266266 34.0138 0.152516C33.6946 0.0387649 33.3544 -0.0122735 33.0138 0.00248807H3.84695C3.19848 0.0305936 2.58636 0.2953 2.13792 0.741555C1.68948 1.18781 1.43924 1.78126 1.43924 2.39846C1.43924 3.01567 1.68948 3.60911 2.13792 4.05536C2.58636 4.50162 3.19848 4.76633 3.84695 4.79444H7.44766C7.10707 4.77968 6.76688 4.83071 6.44761 4.94446C6.12835 5.05821 5.83666 5.23232 5.59014 5.45626C5.34363 5.6802 5.14743 5.94932 5.01338 6.24738C4.87932 6.54544 4.8102 6.86624 4.8102 7.19041C4.8102 7.51457 4.87932 7.83537 5.01338 8.13343C5.14743 8.43149 5.34363 8.70062 5.59014 8.92456C5.83666 9.1485 6.12835 9.3226 6.44761 9.43635C6.76688 9.5501 7.10707 9.60114 7.44766 9.58638H2.40771C1.75924 9.61449 1.14712 9.8792 0.69868 10.3255C0.250238 10.7717 0 11.3652 0 11.9824C0 12.5996 0.250238 13.193 0.69868 13.6393C1.14712 14.0855 1.75924 14.3502 2.40771 14.3783H31.5745C32.223 14.3502 32.8351 14.0855 33.2836 13.6393C33.732 13.193 33.9823 12.5996 33.9823 11.9824C33.9823 11.3652 33.732 10.7717 33.2836 10.3255C32.8351 9.8792 32.223 9.61449 31.5745 9.58638H36.6145C36.9551 9.60114 37.2953 9.5501 37.6145 9.43635C37.9338 9.3226 38.2255 9.1485 38.472 8.92456C38.7185 8.70062 38.9147 8.43149 39.0488 8.13343C39.1828 7.83537 39.2519 7.51457 39.2519 7.19041C39.2519 6.86624 39.1828 6.54544 39.0488 6.24738C38.9147 5.94932 38.7185 5.6802 38.472 5.45626C38.2255 5.23232 37.9338 5.05821 37.6145 4.94446C37.2953 4.83071 36.9551 4.77968 36.6145 4.79444Z" transform="translate(507.41 18.9314)" fill="#252223"/>
<path opacity="0.1" d="M36.8442 4.79444H33.2435C33.5841 4.8092 33.9243 4.75815 34.2436 4.6444C34.5628 4.53065 34.8545 4.35655 35.101 4.13261C35.3476 3.90867 35.5438 3.63954 35.6778 3.34148C35.8119 3.04342 35.881 2.72263 35.881 2.39846C35.881 2.0743 35.8119 1.75349 35.6778 1.45543C35.5438 1.15737 35.3476 0.888253 35.101 0.664313C34.8545 0.440373 34.5628 0.266259 34.2436 0.152508C33.9243 0.0387576 33.5841 -0.0122732 33.2435 0.00248834H4.0767C3.42823 0.0305939 2.81611 0.295308 2.36767 0.741563C1.91923 1.18782 1.66897 1.78126 1.66897 2.39846C1.66897 3.01567 1.91923 3.60911 2.36767 4.05536C2.81611 4.50162 3.42823 4.76633 4.0767 4.79444H7.67742C7.33683 4.77968 6.9966 4.83071 6.67734 4.94446C6.35807 5.05821 6.06639 5.23231 5.81988 5.45625C5.57337 5.68019 5.37716 5.94932 5.24311 6.24738C5.10906 6.54544 5.03995 6.86625 5.03995 7.19041C5.03995 7.51458 5.10906 7.83537 5.24311 8.13343C5.37716 8.43149 5.57337 8.70062 5.81988 8.92456C6.06639 9.1485 6.35807 9.3226 6.67734 9.43635C6.9966 9.5501 7.33683 9.60115 7.67742 9.58639H2.63746C2.29687 9.57163 1.95668 9.62266 1.63741 9.73641C1.31815 9.85016 1.02644 10.0243 0.779928 10.2482C0.533417 10.4721 0.337211 10.7413 0.203159 11.0393C0.0691076 11.3374 0 11.6582 0 11.9824C0 12.3065 0.0691076 12.6273 0.203159 12.9254C0.337211 13.2234 0.533417 13.4926 0.779928 13.7165C1.02644 13.9405 1.31815 14.1146 1.63741 14.2283C1.95668 14.3421 2.29687 14.3931 2.63746 14.3783H31.8043C32.1449 14.3931 32.4851 14.3421 32.8043 14.2283C33.1236 14.1146 33.4153 13.9405 33.6618 13.7165C33.9083 13.4926 34.1045 13.2234 34.2386 12.9254C34.3726 12.6273 34.4417 12.3065 34.4417 11.9824C34.4417 11.6582 34.3726 11.3374 34.2386 11.0393C34.1045 10.7413 33.9083 10.4721 33.6618 10.2482C33.4153 10.0243 33.1236 9.85016 32.8043 9.73641C32.4851 9.62266 32.1449 9.57163 31.8043 9.58639H36.8442C37.1848 9.60115 37.525 9.5501 37.8443 9.43635C38.1635 9.3226 38.4552 9.1485 38.7018 8.92456C38.9483 8.70062 39.1445 8.43149 39.2785 8.13343C39.4126 7.83537 39.4817 7.51458 39.4817 7.19041C39.4817 6.86625 39.4126 6.54544 39.2785 6.24738C39.1445 5.94932 38.9483 5.68019 38.7018 5.45625C38.4552 5.23231 38.1635 5.05821 37.8443 4.94446C37.525 4.83071 37.1848 4.77968 36.8442 4.79444Z" transform="translate(635.926 79.1418)" fill="#252223"/>
<path opacity="0.1" d="M36.8442 4.79444H33.2435C33.5841 4.8092 33.9243 4.75816 34.2436 4.64441C34.5628 4.53066 34.8545 4.35655 35.101 4.13261C35.3476 3.90867 35.5438 3.63954 35.6778 3.34149C35.8119 3.04343 35.881 2.72263 35.881 2.39846C35.881 2.07429 35.8119 1.75349 35.6778 1.45543C35.5438 1.15737 35.3476 0.88825 35.101 0.664309C34.8545 0.440369 34.5628 0.266263 34.2436 0.152512C33.9243 0.0387612 33.5841 -0.0122733 33.2435 0.00248821H4.0767C3.42823 0.0305937 2.81611 0.295301 2.36767 0.741555C1.91923 1.18781 1.66897 1.78126 1.66897 2.39846C1.66897 3.01566 1.91923 3.60911 2.36767 4.05536C2.81611 4.50162 3.42823 4.76633 4.0767 4.79444H7.67742C7.33683 4.77968 6.9966 4.83071 6.67734 4.94446C6.35807 5.05821 6.06639 5.23232 5.81988 5.45626C5.57337 5.6802 5.37716 5.94932 5.24311 6.24738C5.10906 6.54544 5.03995 6.86624 5.03995 7.19041C5.03995 7.51457 5.10906 7.83538 5.24311 8.13343C5.37716 8.43149 5.57337 8.70062 5.81988 8.92457C6.06639 9.14851 6.35807 9.3226 6.67734 9.43635C6.9966 9.55011 7.33683 9.60114 7.67742 9.58638H2.63746C2.29687 9.57162 1.95668 9.62266 1.63741 9.73641C1.31815 9.85016 1.02644 10.0243 0.779928 10.2482C0.533417 10.4721 0.337211 10.7413 0.203159 11.0393C0.0691076 11.3374 0 11.6582 0 11.9824C0 12.3065 0.0691076 12.6273 0.203159 12.9254C0.337211 13.2234 0.533417 13.4926 0.779928 13.7165C1.02644 13.9404 1.31815 14.1146 1.63741 14.2283C1.95668 14.3421 2.29687 14.3931 2.63746 14.3783H31.8043C32.1449 14.3931 32.4851 14.3421 32.8043 14.2283C33.1236 14.1146 33.4153 13.9404 33.6618 13.7165C33.9083 13.4926 34.1045 13.2234 34.2386 12.9254C34.3726 12.6273 34.4417 12.3065 34.4417 11.9824C34.4417 11.6582 34.3726 11.3374 34.2386 11.0393C34.1045 10.7413 33.9083 10.4721 33.6618 10.2482C33.4153 10.0243 33.1236 9.85016 32.8043 9.73641C32.4851 9.62266 32.1449 9.57162 31.8043 9.58638H36.8442C37.1848 9.60114 37.525 9.55011 37.8443 9.43635C38.1635 9.3226 38.4552 9.14851 38.7018 8.92457C38.9483 8.70062 39.1445 8.43149 39.2785 8.13343C39.4126 7.83538 39.4817 7.51457 39.4817 7.19041C39.4817 6.86624 39.4126 6.54544 39.2785 6.24738C39.1445 5.94932 38.9483 5.6802 38.7018 5.45626C38.4552 5.23232 38.1635 5.05821 37.8443 4.94446C37.525 4.83071 37.1848 4.77968 36.8442 4.79444Z" transform="translate(855.214 0.52002)" fill="#252223"/>
<path d="M4.98986 71.2672C4.98986 71.2672 11.9034 48.9396 3.69194 32.5086C0.201009 25.6368 -0.851259 17.8738 0.693098 10.385C1.45449 6.83503 2.55636 3.35881 3.98498 0" transform="translate(886.058 207.572)" stroke="#535461" stroke-width="2" stroke-miterlimit="10"/>
<path d="M0 4.50453C0 7.24136 5.23359 15.1732 5.23359 15.1732C5.23359 15.1732 10.4672 7.23639 10.4672 4.50453C10.3438 3.272 9.74157 2.12748 8.77815 1.29452C7.81473 0.461567 6.55934 0 5.25717 0C3.95499 0 2.6996 0.461567 1.73618 1.29452C0.772765 2.12748 0.170545 3.272 0.0471483 4.50453H0Z" transform="translate(884.935 192.667)" fill="#6C63FF"/>
<path d="M0.607827 7.28473C2.1779 9.58367 11.075 13.5496 11.075 13.5496C11.075 13.5496 10.9127 4.19459 9.3479 1.90062C8.54142 0.925282 7.38085 0.271568 6.09371 0.0676741C4.80657 -0.13622 3.48574 0.124393 2.39023 0.798442C1.29473 1.47249 0.503568 2.51135 0.171896 3.71128C-0.159775 4.91121 -0.00805046 6.18566 0.597349 7.28473H0.607827Z" transform="translate(875.713 205.044)" fill="#6C63FF"/>
<path d="M3.29508 9.59021C5.86477 10.8243 15.662 9.97335 15.662 9.97335C15.662 9.97335 10.5541 1.97682 7.98439 0.742757C7.36789 0.380619 6.67897 0.144154 5.96135 0.0483432C5.24373 -0.0474672 4.51301 -0.000528535 3.81546 0.186169C3.11791 0.372866 2.46876 0.695264 1.90909 1.13294C1.34941 1.57061 0.89142 2.11401 0.564146 2.72875C0.236871 3.34348 0.0474241 4.01617 0.00782081 4.70414C-0.0317825 5.39211 0.0793334 6.0804 0.33409 6.72542C0.588846 7.37044 0.981695 7.95814 1.48779 8.45128C1.99388 8.94442 2.60217 9.33224 3.27412 9.59021H3.29508Z" transform="translate(873.402 228.639)" fill="#6C63FF"/>
<path d="M1.72448 8.67287C4.03773 10.3 13.8455 11.0365 13.8455 11.0365C13.8455 11.0365 10.2343 2.33336 7.92103 0.70619C6.8059 0.0717014 5.48237 -0.145642 4.20801 0.0964823C2.93365 0.338607 1.79961 1.02288 1.02658 2.01611C0.253549 3.00934 -0.103134 4.24051 0.0258599 5.47002C0.154854 6.69952 0.760322 7.83942 1.72448 8.66789V8.67287Z" transform="translate(879.898 249.092)" fill="#6C63FF"/>
<path d="M11.6814 8.20794C9.61932 10.1138 0 12.0893 0 12.0893C0 12.0893 2.35509 3.00794 4.41712 1.1021C5.43244 0.323853 6.71676 -0.0659118 8.01854 0.00912616C9.32032 0.0841641 10.5457 0.618602 11.4547 1.50778C12.3637 2.39695 12.8908 3.57679 12.9328 4.81614C12.9747 6.0555 12.5284 7.26507 11.6814 8.20794Z" transform="translate(886.034 210.918)" fill="#6C63FF"/>
<path d="M12.367 9.59018C9.79729 10.8242 0 9.97334 0 9.97334C0 9.97334 5.10801 1.97682 7.6777 0.742756C8.2942 0.380619 8.98305 0.144154 9.70067 0.0483431C10.4183 -0.0474672 11.149 -0.000528535 11.8466 0.186169C12.5441 0.372866 13.1933 0.695234 13.753 1.13291C14.3127 1.57058 14.7707 2.11401 15.0979 2.72875C15.4252 3.34348 15.6146 4.01613 15.6542 4.70411C15.6938 5.39208 15.5828 6.08037 15.328 6.72539C15.0732 7.37041 14.6804 7.95811 14.1743 8.45125C13.6682 8.94438 13.0599 9.33221 12.3879 9.59018H12.367Z" transform="translate(890.823 232.45)" fill="#6C63FF"/>
<path d="M12.121 8.67287C9.80771 10.3 0 11.0365 0 11.0365C0 11.0365 3.61115 2.33336 5.9244 0.70619C7.03953 0.0717014 8.36306 -0.145642 9.63743 0.0964823C10.9118 0.338607 12.0458 1.02288 12.8189 2.01611C13.5919 3.00934 13.9486 4.24051 13.8196 5.47002C13.6906 6.69952 13.0851 7.83942 12.121 8.66789V8.67287Z" transform="translate(893.157 256.332)" fill="#6C63FF"/>
<path d="M49.6218 11.8047C49.6218 11.8047 36.9827 9.40125 33.6123 6.19666C30.2419 2.99208 15.0749 -2.61596 13.3897 1.38977C11.7045 5.3955 -9.36076 19.015 4.96358 21.4184C19.2879 23.8219 38.6679 24.623 42.8757 23.0207C47.0835 21.4184 49.6218 11.8047 49.6218 11.8047Z" transform="translate(856.467 264.849)" fill="#A8A8A8"/>
<path opacity="0.2" d="M4.96054 8.2105C19.2849 10.6139 38.6649 11.4151 42.8727 9.81278C46.0809 8.59365 48.3104 2.73186 49.1896 0L49.6136 0.0845846C49.6136 0.0845846 47.0857 9.69836 42.8727 11.3006C38.6596 12.9029 19.2796 12.1018 4.96054 9.69834C0.825999 9.00667 -0.356792 7.37452 0.0880631 5.31443C0.443947 6.65797 1.88318 7.69299 4.96054 8.2105Z" transform="translate(856.476 276.57)" fill="black"/>
<path opacity="0.25" d="M476.257 123.904V92.0572H456.369V123.904H432.818V74.6409H415.547V37.8181H401.417V0H372.108V37.8181H357.978V74.6409H341.23V30.354H331.81V7.9617H326.053V30.354H292.558V171.674H266.913V156.746H251.212V171.674H225.568V123.904H179.512V92.0572H159.625V123.904H158.578V185.11H137.643V149.282H112.522V185.11H91.5879V74.6409H75.3637V37.8181H15.7008V74.6409H0V269.205H91.5879H158.578H225.568H292.558H341.23H432.818H499.808V123.904H476.257Z" transform="translate(405.501) scale(-1 1)" fill="#6C63FF"/>
<path opacity="0.4" d="M21.9811 0H0V11.9425H21.9811V0Z" transform="translate(395.557 86.0859) scale(-1 1)" fill="white"/>
<path opacity="0.4" d="M21.9811 0H0V11.9425H21.9811V0Z" transform="translate(324.381 98.0283) scale(1 -1)" fill="white"/>
<path opacity="0.4" d="M21.9811 0H0V11.9425H21.9811V0Z" transform="translate(395.557 109.473) scale(-1 1)" fill="white"/>
<path opacity="0.4" d="M21.9811 0H0V11.9425H21.9811V0Z" transform="translate(324.381 121.416) scale(1 -1)" fill="white"/>
<path opacity="0.4" d="M21.9811 0H0V11.9425H21.9811V0Z" transform="translate(395.557 132.861) scale(-1 1)" fill="white"/>
<path opacity="0.4" d="M21.9811 0H0V11.9425H21.9811V0Z" transform="translate(324.381 144.803) scale(1 -1)" fill="white"/>
<path opacity="0.4" d="M21.9811 0H0V11.9425H21.9811V0Z" transform="translate(395.557 156.248) scale(-1 1)" fill="white"/>
<path opacity="0.4" d="M21.9811 0H0V11.9425H21.9811V0Z" transform="translate(324.381 168.191) scale(1 -1)" fill="white"/>
<path opacity="0.4" d="M21.9811 0H0V11.9425H21.9811V0Z" transform="translate(395.557 179.636) scale(-1 1)" fill="white"/>
<path opacity="0.4" d="M21.9811 0H0V11.9425H21.9811V0Z" transform="translate(324.381 191.578) scale(1 -1)" fill="white"/>
<path opacity="0.4" d="M21.9811 0H0V11.9425H21.9811V0Z" transform="translate(395.557 203.023) scale(-1 1)" fill="white"/>
<path opacity="0.4" d="M21.9811 0H0V11.9425H21.9811V0Z" transform="translate(324.381 214.966) scale(1 -1)" fill="white"/>
<path opacity="0.4" d="M21.9811 0H0V11.9425H21.9811V0Z" transform="translate(395.557 226.411) scale(-1 1)" fill="white"/>
<path opacity="0.4" d="M21.9811 0H0V11.9425H21.9811V0Z" transform="translate(324.381 238.353) scale(1 -1)" fill="white"/>
<path opacity="0.4" d="M51.2892 0H0V5.97127H51.2892V0Z" transform="translate(306.063 197.052) scale(-1 1)" fill="white"/>
<path opacity="0.4" d="M51.2892 0H0V5.97127H51.2892V0Z" transform="translate(306.063 206.009) scale(-1 1)" fill="white"/>
<path opacity="0.4" d="M51.2892 0H0V5.97127H51.2892V0Z" transform="translate(306.063 214.966) scale(-1 1)" fill="white"/>
<path opacity="0.4" d="M51.2892 0H0V5.97127H51.2892V0Z" transform="translate(172.083 200.038) scale(-1 1)" fill="white"/>
<path opacity="0.4" d="M51.2892 0H0V5.97127H51.2892V0Z" transform="translate(172.083 208.995) scale(-1 1)" fill="white"/>
<path opacity="0.4" d="M51.2892 0H0V5.97127H51.2892V0Z" transform="translate(172.083 217.952) scale(-1 1)" fill="white"/>
<path opacity="0.4" d="M51.2892 0H0V5.97127H51.2892V0Z" transform="translate(306.063 223.923) scale(-1 1)" fill="white"/>
<path opacity="0.4" d="M51.2892 0H0V5.97127H51.2892V0Z" transform="translate(306.063 232.88) scale(-1 1)" fill="white"/>
<path opacity="0.4" d="M51.2892 0H0V5.97127H51.2892V0Z" transform="translate(306.063 241.837) scale(-1 1)" fill="white"/>
<path opacity="0.4" d="M14.1307 0H0V17.4162H14.1307V0Z" transform="translate(235.933 135.349) scale(-1 1)" fill="white"/>
<path opacity="0.4" d="M14.1307 0H0V17.4162H14.1307V0Z" transform="translate(190.924 152.765) scale(1 -1)" fill="white"/>
<path opacity="0.4" d="M14.1307 0H0V17.4162H14.1307V0Z" transform="translate(235.933 163.215) scale(-1 1)" fill="white"/>
<path opacity="0.4" d="M14.1307 0H0V17.4162H14.1307V0Z" transform="translate(190.924 180.631) scale(1 -1)" fill="white"/>
<path opacity="0.4" d="M14.1307 0H0V17.4162H14.1307V0Z" transform="translate(235.933 191.081) scale(-1 1)" fill="white"/>
<path opacity="0.4" d="M14.1307 0H0V17.4162H14.1307V0Z" transform="translate(190.924 208.497) scale(1 -1)" fill="white"/>
<path opacity="0.4" d="M14.1307 0H0V17.4162H14.1307V0Z" transform="translate(235.933 218.947) scale(-1 1)" fill="white"/>
<path opacity="0.4" d="M14.1307 0H0V17.4162H14.1307V0Z" transform="translate(190.924 236.363) scale(1 -1)" fill="white"/>
<path opacity="0.4" d="M18.8409 0H0V22.8899H18.8409V0Z" transform="translate(112.943 41.799) scale(-1 1)" fill="white"/>
<path opacity="0.4" d="M18.8409 0H0V22.8899H18.8409V0Z" transform="translate(112.943 74.641) scale(-1 1)" fill="white"/>
<path opacity="0.4" d="M18.8409 0H0V22.8899H18.8409V0Z" transform="translate(112.943 107.483) scale(-1 1)" fill="white"/>
<path opacity="0.4" d="M18.8409 0H0V22.8899H18.8409V0Z" transform="translate(112.943 140.325) scale(-1 1)" fill="white"/>
<path opacity="0.4" d="M18.8409 0H0V22.8899H18.8409V0Z" transform="translate(112.943 173.167) scale(-1 1)" fill="white"/>
<path opacity="0.4" d="M18.8409 0H0V22.8899H18.8409V0Z" transform="translate(112.943 206.009) scale(-1 1)" fill="white"/>
<path opacity="0.4" d="M70.1301 0H0V19.4066H70.1301V0Z" transform="translate(53.5421 88.5739) scale(-1 1)" fill="white"/>
<path opacity="0.4" d="M70.1301 0H0V19.4066H70.1301V0Z" transform="translate(53.2805 130.373) scale(-1 1)" fill="white"/>
<path opacity="0.4" d="M70.1301 0H0V19.4066H70.1301V0Z" transform="translate(53.0187 172.172) scale(-1 1)" fill="white"/>
<path opacity="0.4" d="M70.1301 0H0V19.4066H70.1301V0Z" transform="translate(52.7571 213.971) scale(-1 1)" fill="white"/>
<path opacity="0.4" d="M9.42047 0H0V18.909H9.42047V0Z" transform="translate(389.8 48.2678) scale(-1 1)" fill="white"/>
<path opacity="0.1" d="M36.6145 4.79444H33.0138C33.3544 4.8092 33.6946 4.75816 34.0138 4.64441C34.3331 4.53066 34.6248 4.35655 34.8713 4.13261C35.1178 3.90867 35.314 3.63955 35.4481 3.34149C35.5821 3.04343 35.6512 2.72263 35.6512 2.39846C35.6512 2.0743 35.5821 1.75349 35.4481 1.45544C35.314 1.15738 35.1178 0.888245 34.8713 0.664305C34.6248 0.440365 34.3331 0.266266 34.0138 0.152516C33.6946 0.0387649 33.3544 -0.0122735 33.0138 0.00248807H3.84695C3.19848 0.0305936 2.58636 0.2953 2.13792 0.741555C1.68948 1.18781 1.43924 1.78126 1.43924 2.39846C1.43924 3.01567 1.68948 3.60911 2.13792 4.05536C2.58636 4.50162 3.19848 4.76633 3.84695 4.79444H7.44766C7.10707 4.77968 6.76688 4.83071 6.44761 4.94446C6.12835 5.05821 5.83666 5.23232 5.59014 5.45626C5.34363 5.6802 5.14743 5.94932 5.01338 6.24738C4.87932 6.54544 4.8102 6.86624 4.8102 7.19041C4.8102 7.51457 4.87932 7.83537 5.01338 8.13343C5.14743 8.43149 5.34363 8.70062 5.59014 8.92456C5.83666 9.1485 6.12835 9.3226 6.44761 9.43635C6.76688 9.5501 7.10707 9.60114 7.44766 9.58638H2.40771C1.75924 9.61449 1.14712 9.8792 0.69868 10.3255C0.250238 10.7717 0 11.3652 0 11.9824C0 12.5996 0.250238 13.193 0.69868 13.6393C1.14712 14.0855 1.75924 14.3502 2.40771 14.3783H31.5745C32.223 14.3502 32.8351 14.0855 33.2836 13.6393C33.732 13.193 33.9823 12.5996 33.9823 11.9824C33.9823 11.3652 33.732 10.7717 33.2836 10.3255C32.8351 9.8792 32.223 9.61449 31.5745 9.58638H36.6145C36.9551 9.60114 37.2953 9.5501 37.6145 9.43635C37.9338 9.3226 38.2255 9.1485 38.472 8.92456C38.7185 8.70062 38.9147 8.43149 39.0488 8.13343C39.1828 7.83537 39.2519 7.51457 39.2519 7.19041C39.2519 6.86624 39.1828 6.54544 39.0488 6.24738C38.9147 5.94932 38.7185 5.6802 38.472 5.45626C38.2255 5.23232 37.9338 5.05821 37.6145 4.94446C37.2953 4.83071 36.9551 4.77968 36.6145 4.79444Z" transform="translate(303.593 18.9314) scale(-1 1)" fill="#252223"/>
<path opacity="0.1" d="M36.8442 4.79444H33.2435C33.5841 4.8092 33.9243 4.75815 34.2436 4.6444C34.5628 4.53065 34.8545 4.35655 35.101 4.13261C35.3476 3.90867 35.5438 3.63954 35.6778 3.34148C35.8119 3.04342 35.881 2.72263 35.881 2.39846C35.881 2.0743 35.8119 1.75349 35.6778 1.45543C35.5438 1.15737 35.3476 0.888253 35.101 0.664313C34.8545 0.440373 34.5628 0.266259 34.2436 0.152508C33.9243 0.0387576 33.5841 -0.0122732 33.2435 0.00248834H4.0767C3.42823 0.0305939 2.81611 0.295308 2.36767 0.741563C1.91923 1.18782 1.66897 1.78126 1.66897 2.39846C1.66897 3.01567 1.91923 3.60911 2.36767 4.05536C2.81611 4.50162 3.42823 4.76633 4.0767 4.79444H7.67742C7.33683 4.77968 6.9966 4.83071 6.67734 4.94446C6.35807 5.05821 6.06639 5.23231 5.81988 5.45625C5.57337 5.68019 5.37716 5.94932 5.24311 6.24738C5.10906 6.54544 5.03995 6.86625 5.03995 7.19041C5.03995 7.51458 5.10906 7.83537 5.24311 8.13343C5.37716 8.43149 5.57337 8.70062 5.81988 8.92456C6.06639 9.1485 6.35807 9.3226 6.67734 9.43635C6.9966 9.5501 7.33683 9.60115 7.67742 9.58639H2.63746C2.29687 9.57163 1.95668 9.62266 1.63741 9.73641C1.31815 9.85016 1.02644 10.0243 0.779928 10.2482C0.533417 10.4721 0.337211 10.7413 0.203159 11.0393C0.0691076 11.3374 0 11.6582 0 11.9824C0 12.3065 0.0691076 12.6273 0.203159 12.9254C0.337211 13.2234 0.533417 13.4926 0.779928 13.7165C1.02644 13.9405 1.31815 14.1146 1.63741 14.2283C1.95668 14.3421 2.29687 14.3931 2.63746 14.3783H31.8043C32.1449 14.3931 32.4851 14.3421 32.8043 14.2283C33.1236 14.1146 33.4153 13.9405 33.6618 13.7165C33.9083 13.4926 34.1045 13.2234 34.2386 12.9254C34.3726 12.6273 34.4417 12.3065 34.4417 11.9824C34.4417 11.6582 34.3726 11.3374 34.2386 11.0393C34.1045 10.7413 33.9083 10.4721 33.6618 10.2482C33.4153 10.0243 33.1236 9.85016 32.8043 9.73641C32.4851 9.62266 32.1449 9.57163 31.8043 9.58639H36.8442C37.1848 9.60115 37.525 9.5501 37.8443 9.43635C38.1635 9.3226 38.4552 9.1485 38.7018 8.92456C38.9483 8.70062 39.1445 8.43149 39.2785 8.13343C39.4126 7.83537 39.4817 7.51458 39.4817 7.19041C39.4817 6.86625 39.4126 6.54544 39.2785 6.24738C39.1445 5.94932 38.9483 5.68019 38.7018 5.45625C38.4552 5.23231 38.1635 5.05821 37.8443 4.94446C37.525 4.83071 37.1848 4.77968 36.8442 4.79444Z" transform="translate(175.076 79.1418) scale(-1 1)" fill="#252223"/>
<path d="M10.6855 0C10.6855 0 20.8492 9.66354 15.1132 24.0045C9.37715 38.3456 24.9523 62.1958 24.9523 62.1958L24.4761 62.1212C3.59927 58.6379 -6.77373 35.9172 4.83438 19.0534C9.14686 12.7785 12.69 5.42391 10.6855 0Z" transform="translate(89.1029 206.546) scale(-1 1)" fill="#6C63FF"/>
<path d="M2.36176 0C2.36176 0 8.11871 11.848 2.36176 21.5115C-3.3952 31.175 1.37784 58.2996 16.6233 62.1958" transform="translate(80.7792 206.546) scale(-1 1)" stroke="#535461" stroke-miterlimit="10"/>
<path d="M0 0.120818C0 0.120818 11.5976 -1.63575 12.6548 8.24671C13.712 18.1292 34.9604 19.4976 34.9604 19.4976L34.5626 19.7514C17.0196 30.6987 0.251211 26.7179 2.77904 12.1878C3.72108 6.78377 3.63735 1.35488 0 0.120818Z" transform="translate(96.5204 245.513) scale(-1 1)" fill="#6C63FF"/>
<path opacity="0.2" d="M0 0.120818C0 0.120818 11.5976 -1.63575 12.6548 8.24671C13.712 18.1292 34.9604 19.4976 34.9604 19.4976L34.5626 19.7514C17.0196 30.6987 0.251211 26.7179 2.77904 12.1878C3.72108 6.78377 3.63735 1.35488 0 0.120818Z" transform="translate(96.5204 245.513) scale(-1 1)" fill="#F5F5F5"/>
<path d="M0 0C0 0 9.00177 1.88094 8.26383 9.6635C7.5259 17.4461 21.6357 26.7762 34.9552 19.3817" transform="translate(96.5204 245.633) scale(-1 1)" stroke="#535461" stroke-miterlimit="10"/>
<path d="M28.636 6.80897C28.636 6.80897 21.3404 5.42065 19.3987 3.57453C17.457 1.72841 8.70125 -1.51101 7.7278 0.802861C6.75436 3.11673 -5.4033 10.9739 2.86578 12.3622C11.1349 13.7506 22.319 14.2134 24.7474 13.2878C27.1758 12.3623 28.636 6.80897 28.636 6.80897Z" transform="translate(80.8226 260.087) scale(-1 1)" fill="#A8A8A8"/>
<path opacity="0.2" d="M2.84555 4.73719C11.1146 6.12551 22.2988 6.58831 24.7272 5.66276C26.5799 4.95616 27.8674 1.57741 28.3907 0L28.6315 0.0497485C28.6315 0.0497485 27.1713 5.59806 24.7429 6.51863C22.3145 7.4392 11.1356 6.98141 2.86126 5.59309C0.474746 5.195 -0.205619 4.25452 0.0508274 3.06026C0.239237 3.8415 1.09229 4.43863 2.84555 4.73719Z" transform="translate(80.8076 266.846) scale(-1 1)" fill="black"/>
</svg>
