<svg width="708" height="725" viewBox="0 0 708 725" fill="none" xmlns="http://www.w3.org/2000/svg">
<path d="M315.799 0H0V415.481H315.799V0Z" transform="matrix(0.959943 -0.270201 0.269799 0.960057 0.0727539 132.243)" fill="url(#paint0_linear)"/>
<path d="M316.527 0H0V158.363H316.527V0Z" transform="matrix(0.96418 -0.265249 0.264853 0.964288 0 134.018)" fill="url(#paint1_linear)"/>
<path d="M307.721 0H0V405.815H307.721V0Z" transform="matrix(0.96418 -0.265249 0.264853 0.964288 5.20898 136.332)" fill="#EEEEEE"/>
<path d="M308.429 0H0V154.671H308.429V0Z" transform="matrix(0.96418 -0.265249 0.264853 0.964288 4.76172 136.056)" fill="#6C63FF"/>
<path d="M83.666 0H0V6.3835H83.666V0Z" transform="matrix(0.96418 -0.265249 0.264853 0.964288 119.83 310.078)" fill="#BDBDBD"/>
<path d="M83.666 0H0V6.3835H83.666V0Z" transform="matrix(0.96418 -0.265249 0.264853 0.964288 126.596 334.715)" fill="#F5F5F5"/>
<path d="M218.384 0H0V6.3835H218.384V0Z" transform="matrix(0.96418 -0.265249 0.264853 0.964288 123.217 322.398)" fill="#69F0AE"/>
<path d="M83.666 0H0V6.3835H83.666V0Z" transform="matrix(0.96418 -0.265249 0.264853 0.964288 136.631 159.751)" fill="white"/>
<path d="M134.718 0H0V6.3835H134.718V0Z" transform="matrix(0.96418 -0.265249 0.264853 0.964288 140.389 173.431)" fill="white"/>
<path opacity="0.2" d="M80.6659 0H3.00024C1.34327 0 0 1.34418 0 3.00228V4.09049C0 5.74862 1.34327 7.09277 3.00024 7.09277H80.6659C82.3228 7.09277 83.666 5.74862 83.666 4.09049V3.00228C83.666 1.34418 82.3228 0 80.6659 0Z" transform="matrix(0.96418 -0.265249 0.264853 0.964288 169.891 184.457)" fill="black"/>
<path d="M14.8942 29.8091C23.1201 29.8091 29.7883 23.1361 29.7883 14.9045C29.7883 6.673 23.1201 0 14.8942 0C6.66837 0 0 6.673 0 14.9045C0 23.1361 6.66837 29.8091 14.8942 29.8091Z" transform="matrix(0.96418 -0.265249 0.264853 0.964288 68.9805 316.34)" fill="#69F0AE"/>
<path d="M83.666 0H0V6.38347H83.666V0Z" transform="matrix(0.96418 -0.265249 0.264853 0.964288 136.194 369.605)" fill="#BDBDBD"/>
<path d="M83.666 0H0V6.3835H83.666V0Z" transform="matrix(0.96418 -0.265249 0.264853 0.964288 142.951 394.242)" fill="#F5F5F5"/>
<path d="M218.384 0H0V6.38347H218.384V0Z" transform="matrix(0.96418 -0.265249 0.264853 0.964288 139.572 381.925)" fill="#E0E0E0"/>
<path d="M14.8942 29.8091C23.1201 29.8091 29.7883 23.1361 29.7883 14.9045C29.7883 6.673 23.1201 0 14.8942 0C6.66837 0 0 6.673 0 14.9045C0 23.1361 6.66837 29.8091 14.8942 29.8091Z" transform="matrix(0.96418 -0.265249 0.264853 0.964288 85.3271 375.868)" fill="#E0E0E0"/>
<path d="M83.666 0H0V6.38347H83.666V0Z" transform="matrix(0.96418 -0.265249 0.264853 0.964288 152.537 429.124)" fill="#BDBDBD"/>
<path d="M83.666 0H0V6.3835H83.666V0Z" transform="matrix(0.96418 -0.265249 0.264853 0.964288 159.303 453.751)" fill="#F5F5F5"/>
<path d="M218.384 0H0V6.3835H218.384V0Z" transform="matrix(0.96418 -0.265249 0.264853 0.964288 155.915 441.443)" fill="#E0E0E0"/>
<path d="M14.8942 29.8091C23.1201 29.8091 29.7883 23.1361 29.7883 14.9046C29.7883 6.67303 23.1201 0 14.8942 0C6.66837 0 0 6.67303 0 14.9046C0 23.1361 6.66837 29.8091 14.8942 29.8091Z" transform="matrix(0.96418 -0.265249 0.264853 0.964288 101.682 435.395)" fill="#E0E0E0"/>
<path d="M1.60575 52.3826C3.68881 59.6087 7.71385 66.1237 13.2422 71.2178C18.7705 76.3118 25.59 79.7893 32.9574 81.2712C40.3245 82.7532 47.957 82.1828 55.0226 79.6223C62.0884 77.0614 68.3162 72.6088 73.0271 66.7497C77.7382 60.8903 80.7518 53.8491 81.7391 46.3937C82.7268 38.9382 81.6505 31.3546 78.6278 24.4691C75.605 17.5837 70.7514 11.6609 64.5965 7.34615C58.4416 3.03141 51.2215 0.490383 43.7227 0L46.6354 10.1734C47.6439 13.7191 47.2096 17.5203 45.4266 20.7464C43.6439 23.9726 40.6577 26.3615 37.1206 27.3913C33.5779 28.4007 29.7798 27.9658 26.5562 26.1815C23.3327 24.3973 20.9457 21.4089 19.9167 17.869L17.004 7.69562C10.1542 12.6527 4.99962 19.6045 2.24382 27.6021C-0.512004 35.5998 -0.734835 44.2537 1.60575 52.3826Z" transform="translate(36.4902 151.881)" fill="url(#paint2_linear)"/>
<path d="M80.6254 30.1761C78.6299 22.9238 74.6834 16.3591 69.2161 11.1976C63.7486 6.03612 56.9702 2.476 49.6198 0.905445C42.2695 -0.665104 34.6292 -0.18579 27.5324 2.2911C20.4355 4.768 14.1543 9.14736 9.37374 14.9518C4.59314 20.7561 1.49663 27.7628 0.421866 35.2075C-0.652901 42.6523 0.335343 50.2495 3.2788 57.1709C6.22225 64.0919 11.0079 70.0717 17.114 74.4578C23.2201 78.8438 30.4124 81.4677 37.9064 82.0437L35.1004 71.841C34.1345 68.2851 34.6131 64.4911 36.4321 61.2873C38.251 58.0833 41.2625 55.7296 44.8094 54.7399C48.3622 53.773 52.1532 54.2522 55.3547 56.0723C58.5561 57.8928 60.9078 60.9069 61.897 64.4563L64.7027 74.659C71.6065 69.7843 76.8401 62.8968 79.6895 54.9364C82.5389 46.9756 82.8656 38.3292 80.6254 30.1761Z" transform="translate(35.5117 148.125)" fill="#6C63FF"/>
<path d="M15.7778 31.5773C24.4916 31.5773 31.5555 24.5086 31.5555 15.7887C31.5555 7.06884 24.4916 0 15.7778 0C7.06397 0 0 7.06884 0 15.7887C0 24.5086 7.06397 31.5773 15.7778 31.5773Z" transform="matrix(0.96418 -0.265249 0.264853 0.964288 55.6616 172.735)" fill="white" stroke="white" stroke-miterlimit="10"/>
<path d="M10.1973 0.490624C6.65056 1.48038 3.63902 3.83411 1.82006 7.03808C0.00108471 10.2421 -0.477604 14.0361 0.488463 17.592L3.29434 27.7945C12.8136 28.5183 22.2886 25.9115 30.1006 20.4195L27.2946 10.217C26.3079 6.66346 23.9554 3.64543 20.7515 1.82281C17.5477 0.000185838 13.753 -0.478792 10.1973 0.490624Z" transform="translate(70.1045 202.374)" fill="white" stroke="white" stroke-miterlimit="10"/>
<path d="M3.94587 34.2513C2.07808 32.2273 0.790146 29.7366 0.217676 27.0415C-0.34089 24.3239 0.185288 21.4955 1.68369 19.1613C3.38273 16.6641 6.19832 15.1677 9.04304 14.1378C11.8877 13.1078 14.8684 12.4373 17.5674 11.0867C19.7989 9.95776 21.7839 8.39629 23.4072 6.49307C25.0306 4.58982 26.2599 2.38274 27.0238 0C27.9213 2.14917 28.5192 4.4117 28.8006 6.72395C28.9352 7.88114 28.8325 9.05368 28.4986 10.1698C28.1647 11.2858 27.6068 12.322 26.8588 13.2147C28.8782 11.5046 29.3152 14.0892 29.2278 15.7313C30.752 16.8002 33.5966 16.2657 34.2376 18.0147C34.9607 19.7356 35.2604 21.6049 35.1114 23.4658C34.8685 25.312 36.4122 28.0132 34.6646 28.6351" transform="translate(55.5498 152.872)" fill="white"/>
<path d="M3.94587 34.2513C2.07808 32.2273 0.790146 29.7366 0.217676 27.0415C-0.34089 24.3239 0.185288 21.4955 1.68369 19.1613C3.38273 16.6641 6.19832 15.1677 9.04304 14.1378C11.8877 13.1078 14.8684 12.4373 17.5674 11.0867C19.7989 9.95776 21.7839 8.39629 23.4072 6.49307C25.0306 4.58982 26.2599 2.38274 27.0238 0C27.9213 2.14917 28.5192 4.4117 28.8006 6.72395C28.9352 7.88114 28.8325 9.05368 28.4986 10.1698C28.1647 11.2858 27.6068 12.322 26.8588 13.2147C28.8782 11.5046 29.3152 14.0892 29.2278 15.7313C30.752 16.8002 33.5966 16.2657 34.2376 18.0147C34.9607 19.7356 35.2604 21.6049 35.1114 23.4658C34.8685 25.312 36.4122 28.0132 34.6646 28.6351" transform="translate(55.5498 152.872)" stroke="white" stroke-miterlimit="10"/>
<path d="M0 0.0663192C0 0.0663192 10.8739 -1.92561 7.64087 15.9239L0 0.0663192Z" transform="translate(83.1265 165.418)" fill="white"/>
<path d="M102.361 416.331H0V0H191.148L102.361 416.331Z" transform="translate(516.852 277.684)" fill="url(#paint3_linear)"/>
<path d="M100.341 416.331H0V0H187.371L100.341 416.331Z" transform="translate(513.771 277.684)" fill="#BDBDBD"/>
<path d="M315.784 0H0V415.5H315.784V0Z" transform="matrix(0.994421 -0.10548 0.105313 0.99444 324.02 181.548)" fill="url(#paint4_linear)"/>
<path d="M316.512 0H0V158.371H316.512V0Z" transform="matrix(0.994421 -0.10548 0.105313 0.99444 323.618 181.199)" fill="url(#paint5_linear)"/>
<path d="M307.706 0H0V405.831H307.706V0Z" transform="matrix(0.994421 -0.10548 0.105313 0.99444 328.378 184.318)" fill="#F5F5F5"/>
<path d="M308.413 0H0V154.678H308.413V0Z" transform="matrix(0.994421 -0.10548 0.105313 0.99444 327.983 183.974)" fill="#6C63FF"/>
<path d="M83.6619 0H0V6.38377H83.6619V0Z" transform="matrix(0.994421 -0.10548 0.105313 0.99444 413.384 374.352)" fill="#BDBDBD"/>
<path d="M83.6619 0H0V6.3838H83.6619V0Z" transform="matrix(0.994421 -0.10548 0.105313 0.99444 416.073 399.752)" fill="#F5F5F5"/>
<path d="M218.374 0H0V6.3838H218.374V0Z" transform="matrix(0.994421 -0.10548 0.105313 0.99444 414.726 387.052)" fill="#69F0AE"/>
<path d="M83.6619 0H0V6.3838H83.6619V0Z" transform="matrix(0.994421 -0.10548 0.105313 0.99444 454.286 228.732)" fill="white"/>
<path d="M134.712 0H0V6.3838H134.712V0Z" transform="matrix(0.994421 -0.10548 0.105313 0.99444 455.773 242.847)" fill="white"/>
<path opacity="0.2" d="M80.662 0H3.00009C1.3432 0 0 1.34423 0 3.00244V4.09068C0 5.74888 1.3432 7.09312 3.00009 7.09312H80.662C82.3189 7.09312 83.6622 5.74888 83.6622 4.09068V3.00244C83.6622 1.34423 82.3189 0 80.662 0Z" transform="matrix(0.994421 -0.10548 0.105313 0.99444 483.096 258.49)" fill="black"/>
<path d="M14.8935 29.8104C23.119 29.8104 29.7871 23.1372 29.7871 14.9052C29.7871 6.6733 23.119 0 14.8935 0C6.66802 0 0 6.6733 0 14.9052C0 23.1372 6.66802 29.8104 14.8935 29.8104Z" transform="matrix(0.994421 -0.10548 0.105313 0.99444 362.183 372.286)" fill="#69F0AE"/>
<path d="M83.6619 0H0V6.3838H83.6619V0Z" transform="matrix(0.994421 -0.10548 0.105313 0.99444 419.889 435.733)" fill="#BDBDBD"/>
<path d="M83.6622 0H0V6.3838H83.6622V0Z" transform="matrix(0.994421 -0.10548 0.105313 0.99444 422.578 461.134)" fill="#F5F5F5"/>
<path d="M218.374 0H0V6.3838H218.374V0Z" transform="matrix(0.994421 -0.10548 0.105313 0.99444 421.231 448.434)" fill="#E0E0E0"/>
<path d="M14.8935 29.8104C23.119 29.8104 29.7871 23.1372 29.7871 14.9053C29.7871 6.67332 23.119 0 14.8935 0C6.66802 0 0 6.67332 0 14.9053C0 23.1372 6.66802 29.8104 14.8935 29.8104Z" transform="matrix(0.994421 -0.10548 0.105313 0.99444 368.688 433.668)" fill="#E0E0E0"/>
<path d="M83.6619 0H0V6.3838H83.6619V0Z" transform="matrix(0.994421 -0.10548 0.105313 0.99444 426.386 497.116)" fill="#BDBDBD"/>
<path d="M83.6622 0H0V6.3838H83.6622V0Z" transform="matrix(0.994421 -0.10548 0.105313 0.99444 429.074 522.519)" fill="#F5F5F5"/>
<path d="M218.374 0H0V6.3838H218.374V0Z" transform="matrix(0.994421 -0.10548 0.105313 0.99444 427.728 509.819)" fill="#E0E0E0"/>
<path d="M14.8935 29.8107C23.119 29.8107 29.7871 23.1372 29.7871 14.9053C29.7871 6.67332 23.119 0 14.8935 0C6.66802 0 0 6.67332 0 14.9053C0 23.1372 6.66802 29.8107 14.8935 29.8107Z" transform="matrix(0.994421 -0.10548 0.105313 0.99444 375.184 495.05)" fill="#E0E0E0"/>
<path d="M0.282944 44.8133C1.15988 52.2852 4.07 59.3724 8.69596 65.3022C13.3219 71.232 19.486 75.7768 26.516 78.4408C33.5461 81.1048 41.1721 81.7857 48.5623 80.4093C55.9523 79.0329 62.8231 75.652 68.4247 70.6352C74.0266 65.6184 78.1444 59.1587 80.329 51.9603C82.5136 44.7619 82.6813 37.1014 80.8136 29.8141C78.9462 22.5268 75.1151 15.8927 69.7382 10.6353C64.3614 5.3779 57.6451 1.69905 50.3224 0L51.5652 10.5134C51.9737 14.1637 50.9274 17.8279 48.6536 20.7111C46.3798 23.5944 43.0618 25.464 39.4194 25.9144C35.7599 26.3365 32.0821 25.2919 29.1895 23.0088C26.297 20.7257 24.4249 17.3897 23.9822 13.7297L22.7395 3.21622C15.1731 6.99287 8.95581 13.0148 4.93659 20.4597C0.917409 27.9046 -0.707797 36.4094 0.282944 44.8133Z" transform="translate(349.535 211.891)" fill="url(#paint6_linear)"/>
<path d="M81.8679 36.7376C81.0732 29.2588 78.2422 22.1416 73.6838 16.1622C69.1252 10.1828 63.014 5.5705 56.0162 2.82817C49.0184 0.0858419 41.4028 -0.681276 33.9992 0.610394C26.5959 1.90206 19.6888 5.20295 14.0311 10.1533C8.37332 15.1036 4.18199 21.5133 1.91398 28.6838C-0.35403 35.8542 -0.611652 43.5103 1.16916 50.8172C2.94998 58.124 6.70086 64.8014 12.013 70.1216C17.3251 75.4416 23.9947 79.2002 31.2946 80.9874L30.1779 70.4643C29.7997 66.7966 30.8872 63.1283 33.2033 60.2608C35.519 57.3932 38.8748 55.5596 42.5373 55.1605C46.202 54.7821 49.8675 55.8705 52.7327 58.1882C55.5979 60.506 57.4302 63.8646 57.8289 67.5299L58.9453 78.0529C66.549 74.3633 72.8305 68.4159 76.9328 61.0219C81.0351 53.6283 82.7586 45.1477 81.8679 36.7376Z" transform="translate(349.156 207.014)" fill="#6C63FF"/>
<path d="M15.777 31.5788C24.4905 31.5788 31.554 24.5097 31.554 15.7894C31.554 7.06919 24.4905 0 15.777 0C7.06362 0 0 7.06919 0 15.7894C0 24.5097 7.06362 31.5788 15.777 31.5788Z" transform="matrix(0.994421 -0.10548 0.105313 0.99444 372.285 228.42)" fill="white" stroke="white" stroke-miterlimit="10"/>
<path d="M12.4331 0.0735659C8.77059 0.472604 5.41476 2.30622 3.09892 5.1738C0.783058 8.04135 -0.304529 11.7097 0.0737226 15.3773L1.19021 25.9005C10.4662 28.1644 20.2399 27.134 28.841 22.9855L27.7245 12.4623C27.3306 8.79337 25.5005 5.42997 22.6347 3.10818C19.7689 0.786391 16.1008 -0.304748 12.4331 0.0735659Z" transform="translate(379.259 262.101)" fill="white" stroke="white" stroke-miterlimit="10"/>
<path d="M2.52298 30.0926C1.00556 27.791 0.136861 25.1222 0.00841721 22.3678C-0.101791 19.5988 0.873764 16.8964 2.72689 14.8374C4.80459 12.6414 7.83376 11.6211 10.8047 11.0673C13.7756 10.5134 16.795 10.3774 19.7077 9.40573C22.0923 8.65365 24.3038 7.43487 26.2139 5.82022C28.1239 4.20554 29.6944 2.22718 30.834 0C31.373 2.26447 31.5984 4.59235 31.5039 6.91827C31.4495 8.08272 31.1575 9.22369 30.6467 10.2713C30.1359 11.3189 29.4167 12.2511 28.533 13.0106C30.7954 11.6503 30.8147 14.2641 30.4749 15.877C31.805 17.1791 34.6982 17.1111 35.0478 18.9475C35.489 20.7607 35.489 22.6534 35.0478 24.4666C34.504 26.2447 35.6011 29.1695 33.7661 29.4901" transform="translate(371.19 213.176)" fill="white"/>
<path d="M2.52298 30.0926C1.00556 27.791 0.136861 25.1222 0.00841721 22.3678C-0.101791 19.5988 0.873764 16.8964 2.72689 14.8374C4.80459 12.6414 7.83376 11.6211 10.8047 11.0673C13.7756 10.5134 16.795 10.3774 19.7077 9.40573C22.0923 8.65365 24.3038 7.43487 26.2139 5.82022C28.1239 4.20554 29.6944 2.22718 30.834 0C31.373 2.26447 31.5984 4.59235 31.5039 6.91827C31.4495 8.08272 31.1575 9.22369 30.6467 10.2713C30.1359 11.3189 29.4167 12.2511 28.533 13.0106C30.7954 11.6503 30.8147 14.2641 30.4749 15.877C31.805 17.1791 34.6982 17.1111 35.0478 18.9475C35.489 20.7607 35.489 22.6534 35.0478 24.4666C34.504 26.2447 35.6011 29.1695 33.7661 29.4901" transform="translate(371.19 213.176)" stroke="white" stroke-miterlimit="10"/>
<path d="M0 0.000110963C0 0.000110963 11.0487 -0.203935 4.98066 16.8877L0 0.000110963Z" transform="translate(400.538 225.748)" fill="white"/>
<path d="M315.782 0H0V415.505H315.782V0Z" transform="translate(213.896 0.38855)" fill="url(#paint7_linear)"/>
<path d="M316.51 0H0V158.372H316.51V0Z" transform="translate(213.528)" fill="url(#paint8_linear)"/>
<path d="M307.704 0H0V405.836H307.704V0Z" transform="translate(217.934 3.60486)" fill="#F5F5F5"/>
<path d="M308.412 0H0V154.68H308.412V0Z" transform="translate(217.585 3.22583)" fill="#6C63FF"/>
<path d="M83.6613 0H0V6.38387H83.6613V0Z" transform="translate(282.449 201.543)" fill="#BDBDBD"/>
<path d="M83.6613 0H0V6.38384H83.6613V0Z" transform="translate(282.449 227.088)" fill="#F5F5F5"/>
<path d="M218.372 0H0V6.38384H218.372V0Z" transform="translate(282.449 214.32)" fill="#69F0AE"/>
<path d="M83.6613 0H0V6.38387H83.6613V0Z" transform="translate(338.46 61.0597)" fill="white"/>
<path d="M134.711 0H0V6.38387H134.711V0Z" transform="translate(338.46 75.2457)" fill="white"/>
<path opacity="0.2" d="M80.6611 0H3.00004C1.34316 0 0 1.34424 0 3.00246V4.09073C0 5.74892 1.34316 7.09318 3.00004 7.09318H80.6611C82.318 7.09318 83.6613 5.74892 83.6613 4.09073V3.00246C83.6613 1.34424 82.318 0 80.6611 0Z" transform="translate(363.984 93.6979)" fill="black"/>
<path d="M14.8934 29.8109C23.1188 29.8109 29.7869 23.1374 29.7869 14.9054C29.7869 6.67336 23.1188 0 14.8934 0C6.66801 0 0 6.67336 0 14.9054C0 23.1374 6.66801 29.8109 14.8934 29.8109Z" transform="translate(231.758 194.091)" fill="#69F0AE"/>
<path d="M83.6613 0H0V6.38384H83.6613V0Z" transform="translate(282.449 263.275)" fill="#BDBDBD"/>
<path d="M83.6613 0H0V6.38387H83.6613V0Z" transform="translate(282.449 288.818)" fill="#F5F5F5"/>
<path d="M218.372 0H0V6.38387H218.372V0Z" transform="translate(282.449 276.049)" fill="#E0E0E0"/>
<path d="M14.8934 29.8109C23.1188 29.8109 29.7869 23.1374 29.7869 14.9054C29.7869 6.67336 23.1188 0 14.8934 0C6.66801 0 0 6.67336 0 14.9054C0 23.1374 6.66801 29.8109 14.8934 29.8109Z" transform="translate(231.758 255.82)" fill="#E0E0E0"/>
<path d="M83.6613 0H0V6.38387H83.6613V0Z" transform="translate(282.449 325.013)" fill="#BDBDBD"/>
<path d="M83.6613 0H0V6.38387H83.6613V0Z" transform="translate(282.449 350.548)" fill="#F5F5F5"/>
<path d="M218.372 0H0V6.38387H218.372V0Z" transform="translate(282.449 337.782)" fill="#E0E0E0"/>
<path d="M14.8934 29.8109C23.1188 29.8109 29.7869 23.1374 29.7869 14.9054C29.7869 6.67336 23.1188 0 14.8934 0C6.66801 0 0 6.67336 0 14.9054C0 23.1374 6.66801 29.8109 14.8934 29.8109Z" transform="translate(231.758 317.55)" fill="#E0E0E0"/>
<path d="M0.00265988 39.3332C0.0969528 46.8532 2.25207 54.2031 6.23313 60.5817C10.2142 66.9604 15.8684 72.1228 22.5795 75.5067C29.2906 78.8905 36.801 80.3656 44.2921 79.7712C51.7834 79.177 58.9679 76.5362 65.0624 72.1365C71.157 67.7367 75.9279 61.7472 78.8552 54.8204C81.7822 47.8937 82.7536 40.2959 81.6627 32.855C80.5722 25.4138 77.4614 18.4151 72.6697 12.6217C67.878 6.82827 61.5893 2.46243 54.4889 0L54.615 10.5814C54.659 14.2805 53.2337 17.8456 50.6518 20.4931C48.0703 23.1406 44.5439 24.6537 40.8477 24.6998C37.1652 24.7336 33.6186 23.3077 30.9827 20.7335C28.347 18.1592 26.8359 14.6458 26.7797 10.9604L26.6535 0.37895C18.7498 3.34402 11.9509 8.67436 7.18224 15.6445C2.41353 22.6147 -0.0933815 30.8862 0.00265988 39.3332Z" transform="translate(231.669 38.5265)" fill="url(#paint9_linear)"/>
<path d="M82.098 41.0636C82.0947 33.5428 80.0284 26.1671 76.1247 19.7406C72.2208 13.3141 66.629 8.0834 59.9591 4.61874C53.289 1.15409 45.7967 -0.411602 38.2986 0.0923406C30.8004 0.596285 23.5847 3.15053 17.4374 7.47663C11.2901 11.8028 6.44743 17.7347 3.4372 24.6259C0.426952 31.5172 -0.635319 39.1032 0.366167 46.5571C1.36765 54.0108 4.39448 61.0466 9.11668 66.8971C13.8389 72.7479 20.0753 77.1889 27.146 79.7361V69.145C27.1563 65.4579 28.6243 61.9246 31.2294 59.3174C33.8345 56.7102 37.365 55.241 41.049 55.2306C44.7333 55.241 48.2635 56.7102 50.8688 59.3174C53.4739 61.9246 54.942 65.4579 54.9521 69.145V79.7263C62.9016 76.8596 69.7739 71.6086 74.6316 64.6896C79.4897 57.7706 82.0971 49.5201 82.098 41.0636Z" transform="translate(231.664 32.4722)" fill="#6C63FF"/>
<path d="M15.7769 31.5793C24.4903 31.5793 31.5538 24.5099 31.5538 15.7896C31.5538 7.06926 24.4903 0 15.7769 0C7.06355 0 0 7.06926 0 15.7896C0 24.5099 7.06355 31.5793 15.7769 31.5793Z" transform="translate(256.956 52.101)" fill="white" stroke="white" stroke-miterlimit="10"/>
<path d="M13.9031 0C10.2189 0.0102564 6.68858 1.47951 4.08346 4.08672C1.47834 6.69393 0.0102481 10.2271 0 13.9143V24.4957C8.98872 27.7202 18.8175 27.7202 27.8062 24.4957V13.9143C27.796 10.2271 26.3278 6.69393 23.7227 4.08672C21.1176 1.47951 17.5873 0.0102564 13.9031 0Z" transform="translate(258.799 87.7028)" fill="white" stroke="white" stroke-miterlimit="10"/>
<path d="M1.70706 26.9346C0.442828 24.4847 -0.137427 21.7388 0.0274434 18.9864C0.207092 16.2186 1.46153 13.6309 3.52262 11.7766C5.82362 9.83328 8.94017 9.12397 11.9499 8.86161C14.9597 8.59926 18.0082 8.76445 20.9791 8.18143C23.4287 7.68409 25.7552 6.70478 27.8235 5.30032C29.8918 3.89584 31.6608 2.09422 33.0279 0C33.3234 2.30799 33.3005 4.64567 32.9598 6.94743C32.7832 8.09889 32.3732 9.20208 31.7557 10.1895C31.1379 11.1769 30.3253 12.0278 29.3676 12.69C31.7658 11.5823 31.5036 14.1766 30.9889 15.741C32.1734 17.1791 35.0668 17.4123 35.2122 19.2779C35.4539 21.1297 35.2473 23.0125 34.6105 24.7678C33.8823 26.478 34.6589 29.4998 32.8046 29.6261" transform="translate(255.111 40.0718)" fill="white"/>
<path d="M1.70706 26.9346C0.442828 24.4847 -0.137427 21.7388 0.0274434 18.9864C0.207092 16.2186 1.46153 13.6309 3.52262 11.7766C5.82362 9.83328 8.94017 9.12397 11.9499 8.86161C14.9597 8.59926 18.0082 8.76445 20.9791 8.18143C23.4287 7.68409 25.7552 6.70478 27.8235 5.30032C29.8918 3.89584 31.6608 2.09422 33.0279 0C33.3234 2.30799 33.3005 4.64567 32.9598 6.94743C32.7832 8.09889 32.3732 9.20208 31.7557 10.1895C31.1379 11.1769 30.3253 12.0278 29.3676 12.69C31.7658 11.5823 31.5036 14.1766 30.9889 15.741C32.1734 17.1791 35.0668 17.4123 35.2122 19.2779C35.4539 21.1297 35.2473 23.0125 34.6105 24.7678C33.8823 26.478 34.6589 29.4998 32.8046 29.6261" transform="translate(255.111 40.0718)" stroke="white" stroke-miterlimit="10"/>
<path d="M0 0C0 0 11.0098 0.971659 3.17477 17.3151L0 0Z" transform="translate(285.333 52.4216)" fill="white"/>
<path d="M164.769 48.4183L95.6711 0H0V48.4183V72.1365V477.311H597.929V48.4183H164.769Z" transform="translate(20.2803 247.688)" fill="url(#paint10_linear)"/>
<path d="M0 0V23.0285V416.331H588.715V0H162.235" transform="translate(25.3975 301.004)" fill="white"/>
<path d="M162.235 46.9997L94.1952 0H0V46.9997" transform="translate(25.3975 254.005)" fill="#BDBDBD"/>
<path d="M324.276 0H0V293.443H324.276V0Z" transform="translate(157.621 362.442)" fill="url(#paint11_linear)"/>
<path d="M316.918 0H0V285.972H316.918V0Z" transform="translate(162.03 364.579)" fill="white"/>
<path d="M124.604 0H0V10.2122H124.604V0Z" transform="translate(260.392 578.619)" fill="#BDBDBD"/>
<path d="M272.275 0H0V10.2122H272.275V0Z" transform="translate(184.353 599.053)" fill="#E0E0E0"/>
<path d="M272.275 0H0V10.2122H272.275V0Z" transform="translate(184.353 619.487)" fill="#E0E0E0"/>
<path d="M0.00537991 74.2646C0.183023 88.4643 4.25174 102.343 11.7681 114.387C19.2844 126.432 29.9602 136.181 42.6316 142.572C55.3029 148.962 69.484 151.75 83.6291 150.63C97.7743 149.509 111.341 144.525 122.851 136.219C134.36 127.914 143.371 116.606 148.901 103.528C154.431 90.4503 156.268 76.1041 154.212 62.053C152.156 48.0022 146.286 34.7854 137.242 23.8435C128.197 12.9015 116.325 4.65408 102.919 0L103.162 19.9872C103.227 26.947 100.537 33.6498 95.6797 38.6309C90.8226 43.6123 84.1931 46.4671 77.2394 46.572C70.2853 46.6371 63.5881 43.9449 58.6108 39.0838C53.6335 34.2228 50.7808 27.5878 50.6759 20.6285L50.4333 0.641306C35.4783 6.22658 22.61 16.2947 13.5848 29.4712C4.55967 42.6478 -0.182599 58.2905 0.00537991 74.2646Z" transform="translate(242.949 399.657)" fill="url(#paint12_linear)"/>
<path d="M155.031 77.5637C155.028 63.3599 151.13 49.4295 143.759 37.2913C136.389 25.153 125.831 15.2727 113.235 8.72754C100.64 2.18237 86.4904 -0.776384 72.3299 0.173816C58.1696 1.12402 44.5415 5.94672 32.9315 14.1161C21.3218 22.2855 12.1758 33.4881 6.49078 46.5024C0.805758 59.5168 -1.20007 73.8434 0.69195 87.9203C2.58397 101.997 8.30122 115.284 17.2204 126.332C26.1396 137.38 37.9183 145.766 51.2726 150.575V130.587C51.3005 123.638 54.0715 116.982 58.9815 112.068C63.8916 107.154 70.5427 104.381 77.4864 104.352C84.4301 104.381 91.0815 107.154 95.9916 112.068C100.901 116.982 103.672 123.638 103.701 130.587V150.575C118.725 145.174 131.718 135.262 140.906 122.195C150.092 109.128 155.025 93.5414 155.031 77.5637Z" transform="translate(242.973 388.205)" fill="#BDBDBD"/>
<path d="M9.32052 4.66401C9.32052 2.08813 7.23406 0 4.66027 0C2.08648 0 0 2.08813 0 4.66401V28.2269C0 30.8027 2.08648 32.891 4.66027 32.891C7.23406 32.891 9.32052 30.8027 9.32052 28.2269V4.66401Z" transform="translate(313.78 474.185)" fill="white" stroke="white" stroke-miterlimit="10"/>
<path d="M29.7964 59.641C46.2525 59.641 59.5931 46.2899 59.5931 29.8204C59.5931 13.3511 46.2525 0 29.7964 0C13.3404 0 0 13.3511 0 29.8204C0 46.2899 13.3404 59.641 29.7964 59.641Z" transform="translate(288.692 418.964)" fill="white" stroke="white" stroke-miterlimit="10"/>
<path d="M26.2139 0C19.2702 0.0281403 12.6189 2.80123 7.70895 7.71518C2.79897 12.6291 0.0281177 19.2857 0 26.235V46.2222C16.9701 52.3092 35.5259 52.3092 52.4957 46.2222V26.2739C52.4779 19.3061 49.7022 12.6293 44.7764 7.70501C39.8505 2.78077 33.1762 0.0102576 26.2139 0Z" transform="translate(292.225 486.202)" fill="white" stroke="white" stroke-miterlimit="10"/>
<path d="M3.22605 50.7988C0.838405 46.1749 -0.258367 40.992 0.0512881 35.7963C0.393915 30.5732 2.76322 25.6914 6.65329 22.1929C10.9932 18.4908 16.8767 17.1791 22.5661 16.7224C28.2555 16.2657 34.0129 16.5378 39.6053 15.4398C44.2296 14.5023 48.6221 12.6546 52.5269 10.0041C56.4321 7.35361 59.7721 3.95309 62.353 0C62.7122 4.37249 63.0713 8.81302 62.2267 13.1272C61.382 17.4414 59.1686 21.6682 55.4305 23.971C59.9549 21.8722 59.4599 26.7889 58.4791 29.733C60.722 32.4439 66.1687 32.891 66.4503 36.3987C66.7318 39.9065 66.6831 43.5308 65.3142 46.7664C63.9451 50.0019 65.4112 55.6961 61.916 55.9487" transform="translate(285.214 396.334)" fill="white"/>
<path d="M3.22605 50.7988C0.838405 46.1749 -0.258367 40.992 0.0512881 35.7963C0.393915 30.5732 2.76322 25.6914 6.65329 22.1929C10.9932 18.4908 16.8767 17.1791 22.5661 16.7224C28.2555 16.2657 34.0129 16.5378 39.6053 15.4398C44.2296 14.5023 48.6221 12.6546 52.5269 10.0041C56.4321 7.35361 59.7721 3.95309 62.353 0C62.7122 4.37249 63.0713 8.81302 62.2267 13.1272C61.382 17.4414 59.1686 21.6682 55.4305 23.971C59.9549 21.8722 59.4599 26.7889 58.4791 29.733C60.722 32.4439 66.1687 32.891 66.4503 36.3987C66.7318 39.9065 66.6831 43.5308 65.3142 46.7664C63.9451 50.0019 65.4112 55.6961 61.916 55.9487" transform="translate(285.214 396.334)" stroke="white" stroke-miterlimit="10"/>
<path d="M0 0C0 0 20.7867 1.81704 5.99035 32.6966L0 0Z" transform="translate(342.295 419.586)" fill="white"/>
<defs>
<linearGradient id="paint0_linear" x2="1" gradientUnits="userSpaceOnUse" gradientTransform="translate(-257.301 415.481) scale(415.196 415.481) rotate(-90)">
<stop stop-color="#808080" stop-opacity="0.25"/>
<stop offset="0.54" stop-color="#808080" stop-opacity="0.12"/>
<stop offset="1" stop-color="#808080" stop-opacity="0.1"/>
</linearGradient>
<linearGradient id="paint1_linear" x2="1" gradientUnits="userSpaceOnUse" gradientTransform="translate(0.00981102 158.354) scale(158.254 158.363) rotate(-90)">
<stop stop-color="#B3B3B3" stop-opacity="0.25"/>
<stop offset="0.54" stop-color="#B3B3B3" stop-opacity="0.1"/>
<stop offset="1" stop-color="#B3B3B3" stop-opacity="0.05"/>
</linearGradient>
<linearGradient id="paint2_linear" x2="1" gradientUnits="userSpaceOnUse" gradientTransform="translate(-22.3608 108.821) scale(80.2365 80.3011) rotate(-108.66)">
<stop stop-opacity="0.12"/>
<stop offset="0.55" stop-opacity="0.09"/>
<stop offset="1" stop-opacity="0.02"/>
</linearGradient>
<linearGradient id="paint3_linear" x2="1" gradientUnits="userSpaceOnUse" gradientTransform="translate(38671.1 297363) scale(81901.2 178385) rotate(-90)">
<stop stop-color="#808080" stop-opacity="0.25"/>
<stop offset="0.54" stop-color="#808080" stop-opacity="0.12"/>
<stop offset="1" stop-color="#808080" stop-opacity="0.1"/>
</linearGradient>
<linearGradient id="paint4_linear" x2="1" gradientUnits="userSpaceOnUse" gradientTransform="translate(97839 279508) scale(135035 177676) rotate(-90)">
<stop stop-color="#808080" stop-opacity="0.25"/>
<stop offset="0.54" stop-color="#808080" stop-opacity="0.12"/>
<stop offset="1" stop-color="#808080" stop-opacity="0.1"/>
</linearGradient>
<linearGradient id="paint5_linear" x2="1" gradientUnits="userSpaceOnUse" gradientTransform="translate(181813 64562.3) scale(51585.2 25811.3) rotate(-90)">
<stop stop-color="#B3B3B3" stop-opacity="0.25"/>
<stop offset="0.54" stop-color="#B3B3B3" stop-opacity="0.1"/>
<stop offset="1" stop-color="#B3B3B3" stop-opacity="0.05"/>
</linearGradient>
<linearGradient id="paint6_linear" x2="1" gradientUnits="userSpaceOnUse" gradientTransform="matrix(-1067.42 -6617.01 6699.32 -1074.93 -59691.1 -19409.7)">
<stop stop-opacity="0.12"/>
<stop offset="0.55" stop-opacity="0.09"/>
<stop offset="1" stop-opacity="0.02"/>
</linearGradient>
<linearGradient id="paint7_linear" x2="1" gradientUnits="userSpaceOnUse" gradientTransform="translate(-14118.5 177848) scale(135037 177682) rotate(-90)">
<stop stop-color="#808080" stop-opacity="0.25"/>
<stop offset="0.54" stop-color="#808080" stop-opacity="0.12"/>
<stop offset="1" stop-color="#808080" stop-opacity="0.1"/>
</linearGradient>
<linearGradient id="paint8_linear" x2="1" gradientUnits="userSpaceOnUse" gradientTransform="translate(69609.9 25813.1) scale(51587.7 25813.1) rotate(-90)">
<stop stop-color="#B3B3B3" stop-opacity="0.25"/>
<stop offset="0.54" stop-color="#B3B3B3" stop-opacity="0.1"/>
<stop offset="1" stop-color="#B3B3B3" stop-opacity="0.05"/>
</linearGradient>
<linearGradient id="paint9_linear" x2="1" gradientUnits="userSpaceOnUse" gradientTransform="matrix(-349.164 -6595.28 6776.85 -343.506 -66764.8 -38417.2)">
<stop stop-opacity="0.12"/>
<stop offset="0.55" stop-opacity="0.09"/>
<stop offset="1" stop-opacity="0.02"/>
</linearGradient>
<linearGradient id="paint10_linear" x2="1" gradientUnits="userSpaceOnUse" gradientTransform="translate(-97115.9 356141) scale(293721 234470) rotate(-90)">
<stop stop-color="#808080" stop-opacity="0.25"/>
<stop offset="0.54" stop-color="#808080" stop-opacity="0.12"/>
<stop offset="1" stop-color="#808080" stop-opacity="0.1"/>
</linearGradient>
<linearGradient id="paint11_linear" x2="1" gradientUnits="userSpaceOnUse" gradientTransform="translate(8865.64 198077) scale(97931.2 88620) rotate(-90)">
<stop stop-color="#808080" stop-opacity="0.25"/>
<stop offset="0.54" stop-color="#808080" stop-opacity="0.12"/>
<stop offset="1" stop-color="#808080" stop-opacity="0.1"/>
</linearGradient>
<linearGradient id="paint12_linear" x2="1" gradientUnits="userSpaceOnUse" gradientTransform="matrix(-1245.82 -23510.7 24159.4 -1225.57 -129948 -5980.89)">
<stop stop-opacity="0.12"/>
<stop offset="0.55" stop-opacity="0.09"/>
<stop offset="1" stop-opacity="0.02"/>
</linearGradient>
</defs>
</svg>
