<svg width="196" height="62" viewBox="0 0 196 62" fill="none" xmlns="http://www.w3.org/2000/svg">
<g opacity="0.9">
<path d="M8.64 11.52H2.736V36H21.492V30.528H8.64V11.52ZM38.797 11.52H32.893V36H38.797V11.52ZM75.3877 11.52H69.4477V26.46L57.0637 11.52H51.1237V36H57.0637V21.024L69.4477 36H75.3877V11.52ZM106.227 27.18C105.039 29.34 102.807 30.888 99.7827 30.888C95.4987 30.888 92.5107 27.468 92.5107 23.58C92.5107 19.548 95.4987 16.416 99.7827 16.416C102.879 16.416 105.147 17.892 106.299 20.124L111.303 17.208C109.107 13.536 105.003 11.088 99.7827 11.088C92.1147 11.088 86.5347 16.776 86.5347 23.58C86.5347 30.816 92.1147 36.432 99.7827 36.432C104.967 36.432 109.035 33.732 111.231 30.06L106.227 27.18Z" transform="translate(76)" fill="white"/>
<path d="M8.64 11.52H9.14V11.02H8.64V11.52ZM2.736 11.52V11.02H2.236V11.52H2.736ZM2.736 36H2.236V36.5H2.736V36ZM21.492 36V36.5H21.992V36H21.492ZM21.492 30.528H21.992V30.028H21.492V30.528ZM8.64 30.528H8.14V31.028H8.64V30.528ZM8.64 11.02H2.736V12.02H8.64V11.02ZM2.236 11.52V36H3.236V11.52H2.236ZM2.736 36.5H21.492V35.5H2.736V36.5ZM21.992 36V30.528H20.992V36H21.992ZM21.492 30.028H8.64V31.028H21.492V30.028ZM9.14 30.528V11.52H8.14V30.528H9.14ZM38.797 11.52H39.297V11.02H38.797V11.52ZM32.893 11.52V11.02H32.393V11.52H32.893ZM32.893 36H32.393V36.5H32.893V36ZM38.797 36V36.5H39.297V36H38.797ZM38.797 11.02H32.893V12.02H38.797V11.02ZM32.393 11.52V36H33.393V11.52H32.393ZM32.893 36.5H38.797V35.5H32.893V36.5ZM39.297 36V11.52H38.297V36H39.297ZM75.3877 11.52H75.8877V11.02H75.3877V11.52ZM69.4477 11.52V11.02H68.9477V11.52H69.4477ZM69.4477 26.46L69.0627 26.7791L69.9477 27.8467V26.46H69.4477ZM57.0637 11.52L57.4486 11.2009L57.2986 11.02H57.0637V11.52ZM51.1237 11.52V11.02H50.6237V11.52H51.1237ZM51.1237 36H50.6237V36.5H51.1237V36ZM57.0637 36V36.5H57.5637V36H57.0637ZM57.0637 21.024L57.449 20.7054L56.5637 19.6347V21.024H57.0637ZM69.4477 36L69.0623 36.3186L69.2123 36.5H69.4477V36ZM75.3877 36V36.5H75.8877V36H75.3877ZM75.3877 11.02H69.4477V12.02H75.3877V11.02ZM68.9477 11.52V26.46H69.9477V11.52H68.9477ZM69.8326 26.1409L57.4486 11.2009L56.6787 11.8391L69.0627 26.7791L69.8326 26.1409ZM57.0637 11.02H51.1237V12.02H57.0637V11.02ZM50.6237 11.52V36H51.6237V11.52H50.6237ZM51.1237 36.5H57.0637V35.5H51.1237V36.5ZM57.5637 36V21.024H56.5637V36H57.5637ZM56.6783 21.3426L69.0623 36.3186L69.833 35.6814L57.449 20.7054L56.6783 21.3426ZM69.4477 36.5H75.3877V35.5H69.4477V36.5ZM75.8877 36V11.52H74.8877V36H75.8877ZM106.227 27.18L106.476 26.7466L106.034 26.4924L105.789 26.939L106.227 27.18ZM106.299 20.124L105.854 20.3533L106.096 20.821L106.55 20.556L106.299 20.124ZM111.303 17.208L111.554 17.64L111.991 17.3854L111.732 16.9514L111.303 17.208ZM111.231 30.06L111.66 30.3166L111.921 29.8803L111.48 29.6266L111.231 30.06ZM105.789 26.939C104.684 28.9466 102.616 30.388 99.7827 30.388V31.388C102.997 31.388 105.393 29.7334 106.665 27.421L105.789 26.939ZM99.7827 30.388C95.7957 30.388 93.0107 27.2131 93.0107 23.58H92.0107C92.0107 27.7229 95.2018 31.388 99.7827 31.388V30.388ZM93.0107 23.58C93.0107 19.8225 95.7765 16.916 99.7827 16.916V15.916C95.2209 15.916 92.0107 19.2735 92.0107 23.58H93.0107ZM99.7827 16.916C102.703 16.916 104.793 18.2972 105.854 20.3533L106.743 19.8947C105.5 17.4868 103.055 15.916 99.7827 15.916V16.916ZM106.55 20.556L111.554 17.64L111.051 16.776L106.047 19.692L106.55 20.556ZM111.732 16.9514C109.44 13.1191 105.168 10.588 99.7827 10.588V11.588C104.838 11.588 108.773 13.9529 110.874 17.4646L111.732 16.9514ZM99.7827 10.588C91.8552 10.588 86.0347 16.4835 86.0347 23.58H87.0347C87.0347 17.0685 92.3742 11.588 99.7827 11.588V10.588ZM86.0347 23.58C86.0347 31.1012 91.8477 36.932 99.7827 36.932V35.932C92.3817 35.932 87.0347 30.5308 87.0347 23.58H86.0347ZM99.7827 36.932C105.153 36.932 109.379 34.1308 111.66 30.3166L110.802 29.8034C108.691 33.3332 104.781 35.932 99.7827 35.932V36.932ZM111.48 29.6266L106.476 26.7466L105.977 27.6134L110.981 30.4934L111.48 29.6266Z" transform="translate(76)" fill="#F7F7F7"/>
<path d="M6.29 6.99C7.12867 6.99 7.888 7.18267 8.568 7.568C9.248 7.942 9.78067 8.47467 10.166 9.166C10.5513 9.85733 10.744 10.645 10.744 11.529C10.744 12.413 10.5513 13.2007 10.166 13.892C9.78067 14.5833 9.248 15.1217 8.568 15.507C7.888 15.8923 7.12867 16.085 6.29 16.085C5.542 16.085 4.86767 15.9263 4.267 15.609C3.67767 15.2917 3.20167 14.8327 2.839 14.232V16H1.683V3.386H2.89V8.758C3.264 8.18 3.74 7.74367 4.318 7.449C4.90733 7.143 5.56467 6.99 6.29 6.99ZM6.205 15.014C6.82833 15.014 7.395 14.8723 7.905 14.589C8.415 14.2943 8.81167 13.8807 9.095 13.348C9.38967 12.8153 9.537 12.209 9.537 11.529C9.537 10.849 9.38967 10.2427 9.095 9.71C8.81167 9.17733 8.415 8.76933 7.905 8.486C7.395 8.19133 6.82833 8.044 6.205 8.044C5.57033 8.044 4.998 8.19133 4.488 8.486C3.98933 8.76933 3.59267 9.17733 3.298 9.71C3.01467 10.2427 2.873 10.849 2.873 11.529C2.873 12.209 3.01467 12.8153 3.298 13.348C3.59267 13.8807 3.98933 14.2943 4.488 14.589C4.998 14.8723 5.57033 15.014 6.205 15.014ZM20.4695 7.058L15.9985 17.071C15.6358 17.9097 15.2165 18.5047 14.7405 18.856C14.2645 19.2073 13.6921 19.383 13.0235 19.383C12.5928 19.383 12.1905 19.315 11.8165 19.179C11.4425 19.043 11.1195 18.839 10.8475 18.567L11.4085 17.666C11.8618 18.1193 12.4058 18.346 13.0405 18.346C13.4485 18.346 13.7941 18.2327 14.0775 18.006C14.3721 17.7793 14.6441 17.394 14.8935 16.85L15.2845 15.983L11.2895 7.058H12.5475L15.9135 14.657L19.2795 7.058H20.4695ZM34.3705 9.863C35.1525 10.033 35.7532 10.373 36.1725 10.883C36.6032 11.3817 36.8185 12.0277 36.8185 12.821C36.8185 13.841 36.4389 14.6287 35.6795 15.184C34.9315 15.728 33.8209 16 32.3475 16H26.8735V4.1H32.0075C33.3335 4.1 34.3592 4.36633 35.0845 4.899C35.8212 5.43167 36.1895 6.18533 36.1895 7.16C36.1895 7.81733 36.0252 8.37833 35.6965 8.843C35.3792 9.29633 34.9372 9.63633 34.3705 9.863ZM28.1315 5.137V9.455H31.9225C32.8859 9.455 33.6282 9.27367 34.1495 8.911C34.6709 8.537 34.9315 7.99867 34.9315 7.296C34.9315 6.59333 34.6709 6.06067 34.1495 5.698C33.6282 5.324 32.8859 5.137 31.9225 5.137H28.1315ZM32.3305 14.963C33.3959 14.963 34.2005 14.7817 34.7445 14.419C35.2885 14.0563 35.5605 13.4897 35.5605 12.719C35.5605 11.2343 34.4839 10.492 32.3305 10.492H28.1315V14.963H32.3305ZM39.435 7.058H40.642V16H39.435V7.058ZM40.047 5.103C39.7976 5.103 39.588 5.018 39.418 4.848C39.248 4.678 39.163 4.474 39.163 4.236C39.163 4.00933 39.248 3.811 39.418 3.641C39.588 3.471 39.7976 3.386 40.047 3.386C40.2963 3.386 40.506 3.471 40.676 3.641C40.846 3.79967 40.931 3.99233 40.931 4.219C40.931 4.46833 40.846 4.678 40.676 4.848C40.506 5.018 40.2963 5.103 40.047 5.103ZM48.7094 15.456C48.4827 15.66 48.1994 15.8187 47.8594 15.932C47.5307 16.034 47.185 16.085 46.8224 16.085C45.9837 16.085 45.3377 15.8583 44.8844 15.405C44.431 14.9517 44.2044 14.3113 44.2044 13.484V8.078H42.6064V7.058H44.2044V5.103H45.4114V7.058H48.1314V8.078H45.4114V13.416C45.4114 13.9487 45.5417 14.3567 45.8024 14.64C46.0744 14.912 46.4597 15.048 46.9584 15.048C47.2077 15.048 47.4457 15.0083 47.6724 14.929C47.9104 14.8497 48.1144 14.7363 48.2844 14.589L48.7094 15.456ZM58.8702 7.058V14.912C58.8702 16.4307 58.4962 17.5527 57.7482 18.278C57.0115 19.0147 55.8952 19.383 54.3992 19.383C53.5719 19.383 52.7842 19.2583 52.0362 19.009C51.2995 18.771 50.6989 18.4367 50.2342 18.006L50.8462 17.088C51.2769 17.4733 51.7982 17.7737 52.4102 17.989C53.0335 18.2043 53.6852 18.312 54.3652 18.312C55.4985 18.312 56.3315 18.0457 56.8642 17.513C57.3969 16.9917 57.6632 16.1757 57.6632 15.065V13.926C57.2892 14.4927 56.7962 14.9233 56.1842 15.218C55.5835 15.5127 54.9149 15.66 54.1782 15.66C53.3395 15.66 52.5745 15.4787 51.8832 15.116C51.2032 14.742 50.6649 14.2263 50.2682 13.569C49.8829 12.9003 49.6902 12.1467 49.6902 11.308C49.6902 10.4693 49.8829 9.72133 50.2682 9.064C50.6649 8.40667 51.2032 7.89667 51.8832 7.534C52.5632 7.17133 53.3282 6.99 54.1782 6.99C54.9375 6.99 55.6232 7.143 56.2352 7.449C56.8472 7.755 57.3402 8.197 57.7142 8.775V7.058H58.8702ZM54.2972 14.589C54.9432 14.589 55.5269 14.453 56.0482 14.181C56.5695 13.8977 56.9719 13.5067 57.2552 13.008C57.5499 12.5093 57.6972 11.9427 57.6972 11.308C57.6972 10.6733 57.5499 10.1123 57.2552 9.625C56.9719 9.12633 56.5695 8.741 56.0482 8.469C55.5382 8.18567 54.9545 8.044 54.2972 8.044C53.6512 8.044 53.0675 8.18 52.5462 8.452C52.0362 8.724 51.6339 9.10933 51.3392 9.608C51.0559 10.1067 50.9142 10.6733 50.9142 11.308C50.9142 11.9427 51.0559 12.5093 51.3392 13.008C51.6339 13.5067 52.0362 13.8977 52.5462 14.181C53.0675 14.453 53.6512 14.589 54.2972 14.589ZM70.0315 11.903H62.5515C62.6195 12.8323 62.9765 13.586 63.6225 14.164C64.2685 14.7307 65.0845 15.014 66.0705 15.014C66.6258 15.014 67.1358 14.9177 67.6005 14.725C68.0652 14.521 68.4675 14.2263 68.8075 13.841L69.4875 14.623C69.0908 15.099 68.5922 15.4617 67.9915 15.711C67.4022 15.9603 66.7505 16.085 66.0365 16.085C65.1185 16.085 64.3025 15.8923 63.5885 15.507C62.8858 15.1103 62.3362 14.5663 61.9395 13.875C61.5428 13.1837 61.3445 12.4017 61.3445 11.529C61.3445 10.6563 61.5315 9.87433 61.9055 9.183C62.2908 8.49167 62.8122 7.95333 63.4695 7.568C64.1382 7.18267 64.8862 6.99 65.7135 6.99C66.5408 6.99 67.2832 7.18267 67.9405 7.568C68.5978 7.95333 69.1135 8.49167 69.4875 9.183C69.8615 9.863 70.0485 10.645 70.0485 11.529L70.0315 11.903ZM65.7135 8.027C64.8522 8.027 64.1268 8.30467 63.5375 8.86C62.9595 9.404 62.6308 10.118 62.5515 11.002H68.8925C68.8132 10.118 68.4788 9.404 67.8895 8.86C67.3115 8.30467 66.5862 8.027 65.7135 8.027ZM77.0613 6.99C78.1833 6.99 79.0729 7.31867 79.7303 7.976C80.3989 8.622 80.7333 9.56833 80.7333 10.815V16H79.5263V10.934C79.5263 10.0047 79.2939 9.29633 78.8293 8.809C78.3646 8.32167 77.7016 8.078 76.8403 8.078C75.8769 8.078 75.1119 8.367 74.5453 8.945C73.9899 9.51167 73.7123 10.2993 73.7123 11.308V16H72.5053V7.058H73.6613V8.707C73.9899 8.163 74.4433 7.74367 75.0213 7.449C75.6106 7.143 76.2906 6.99 77.0613 6.99ZM84.0101 7.058H85.2171V16H84.0101V7.058ZM84.6221 5.103C84.3728 5.103 84.1631 5.018 83.9931 4.848C83.8231 4.678 83.7381 4.474 83.7381 4.236C83.7381 4.00933 83.8231 3.811 83.9931 3.641C84.1631 3.471 84.3728 3.386 84.6221 3.386C84.8715 3.386 85.0811 3.471 85.2511 3.641C85.4211 3.79967 85.5061 3.99233 85.5061 4.219C85.5061 4.46833 85.4211 4.678 85.2511 4.848C85.0811 5.018 84.8715 5.103 84.6221 5.103ZM92.2816 16.085C91.3976 16.085 90.6042 15.8923 89.9016 15.507C89.2102 15.1217 88.6662 14.5833 88.2696 13.892C87.8729 13.1893 87.6746 12.4017 87.6746 11.529C87.6746 10.6563 87.8729 9.87433 88.2696 9.183C88.6662 8.49167 89.2102 7.95333 89.9016 7.568C90.6042 7.18267 91.3976 6.99 92.2816 6.99C93.0522 6.99 93.7379 7.143 94.3386 7.449C94.9506 7.74367 95.4322 8.18 95.7836 8.758L94.8826 9.37C94.5879 8.928 94.2139 8.59933 93.7606 8.384C93.3072 8.15733 92.8142 8.044 92.2816 8.044C91.6356 8.044 91.0519 8.19133 90.5306 8.486C90.0206 8.76933 89.6182 9.17733 89.3236 9.71C89.0402 10.2427 88.8986 10.849 88.8986 11.529C88.8986 12.2203 89.0402 12.8323 89.3236 13.365C89.6182 13.8863 90.0206 14.2943 90.5306 14.589C91.0519 14.8723 91.6356 15.014 92.2816 15.014C92.8142 15.014 93.3072 14.9063 93.7606 14.691C94.2139 14.4757 94.5879 14.147 94.8826 13.705L95.7836 14.317C95.4322 14.895 94.9506 15.337 94.3386 15.643C93.7266 15.9377 93.0409 16.085 92.2816 16.085ZM100.552 16.085C99.8263 16.085 99.1293 15.983 98.4607 15.779C97.8033 15.5637 97.2877 15.2973 96.9137 14.98L97.4577 14.028C97.8317 14.3227 98.302 14.5663 98.8687 14.759C99.4353 14.9403 100.025 15.031 100.637 15.031C101.453 15.031 102.053 14.9063 102.439 14.657C102.835 14.3963 103.034 14.0337 103.034 13.569C103.034 13.2403 102.926 12.9853 102.711 12.804C102.495 12.6113 102.223 12.4697 101.895 12.379C101.566 12.277 101.13 12.1807 100.586 12.09C99.8603 11.954 99.2767 11.818 98.8347 11.682C98.3927 11.5347 98.013 11.291 97.6957 10.951C97.3897 10.611 97.2367 10.1407 97.2367 9.54C97.2367 8.792 97.5483 8.18 98.1717 7.704C98.795 7.228 99.662 6.99 100.773 6.99C101.351 6.99 101.929 7.06933 102.507 7.228C103.085 7.37533 103.561 7.57367 103.935 7.823L103.408 8.792C102.671 8.282 101.793 8.027 100.773 8.027C100.002 8.027 99.4183 8.163 99.0217 8.435C98.6363 8.707 98.4437 9.064 98.4437 9.506C98.4437 9.846 98.5513 10.118 98.7667 10.322C98.9933 10.526 99.271 10.679 99.5997 10.781C99.9283 10.8717 100.382 10.968 100.96 11.07C101.674 11.206 102.246 11.342 102.677 11.478C103.107 11.614 103.476 11.8463 103.782 12.175C104.088 12.5037 104.241 12.957 104.241 13.535C104.241 14.317 103.912 14.9403 103.255 15.405C102.609 15.8583 101.708 16.085 100.552 16.085Z" transform="translate(80 41)" fill="white"/>
<path d="M56.9057 24.3172C56.8787 21.4473 55.7662 18.6918 53.7882 16.5956C51.8102 14.4993 49.1106 13.2148 46.2231 12.996C41.8072 12.6776 37.2259 12.4994 32.6086 12.4638V11.1333C33.9326 10.7496 35.0727 9.9056 35.8195 8.75614C36.5662 7.60667 36.8697 6.22887 36.6742 4.87555C36.4786 3.52222 35.7972 2.28417 34.7549 1.38859C33.7127 0.493019 32.3795 0 31 0C29.6206 0 28.2873 0.493019 27.2451 1.38859C26.2028 2.28417 25.5214 3.52222 25.3259 4.87555C25.1303 6.22887 25.4338 7.60667 26.1806 8.75614C26.9274 9.9056 28.0674 10.7496 29.3914 11.1333V12.4638C24.7741 12.4994 20.1928 12.6776 15.7769 12.996C12.8894 13.2148 10.1898 14.4993 8.2118 16.5956C6.23379 18.6918 5.12134 21.4473 5.09435 24.3172C3.64381 24.6789 2.35595 25.5087 1.43362 26.6757C0.511292 27.8427 0.00692623 29.2806 0 30.763V36.104C0.00651368 37.5865 0.510715 39.0247 1.43311 40.1917C2.3555 41.3588 3.64361 42.1885 5.09435 42.5498V42.7874C5.0895 44.2955 5.38854 45.7894 5.97393 47.1815C6.55932 48.5735 7.41927 49.8357 8.50336 50.894C9.30925 51.6825 10.2276 52.3493 11.2291 52.8731C11.6342 53.0859 12.0512 53.2754 12.4782 53.441C24.3619 58.1863 37.6381 58.1863 49.5219 53.441C49.9311 53.2822 50.3312 53.1013 50.7205 52.8993C51.7256 52.3781 52.6487 51.7146 53.4607 50.9297C54.5553 49.8699 55.4242 48.6032 56.0159 47.2046C56.6077 45.806 56.9102 44.304 56.9057 42.7874V42.5498C58.3564 42.1885 59.6445 41.3588 60.5669 40.1917C61.4893 39.0247 61.9935 37.5865 62 36.104V30.7606C61.9925 29.2787 61.4879 27.8412 60.5657 26.6747C59.6434 25.5082 58.3558 24.6788 56.9057 24.3172V24.3172ZM5.09435 39.1713C4.52775 38.8804 4.05289 38.4405 3.72179 37.8999C3.39069 37.3593 3.21613 36.7388 3.21724 36.1064V30.763C3.21613 30.1306 3.39069 29.5101 3.72179 28.9695C4.05289 28.4289 4.52775 27.989 5.09435 27.6981V39.1713ZM28.4852 5.69247C28.4857 5.19963 28.6336 4.718 28.9102 4.30846C29.1868 3.89891 29.5797 3.57982 30.0393 3.39155C30.4989 3.20328 31.0044 3.15426 31.4921 3.2507C31.9798 3.34713 32.4276 3.5847 32.7791 3.93335C33.1305 4.282 33.3698 4.72608 33.4667 5.20948C33.5635 5.69288 33.5136 6.19387 33.3232 6.64915C33.1328 7.10442 32.8104 7.49354 32.3969 7.76729C31.9834 8.04105 31.4973 8.18716 31 8.18716C30.6696 8.18716 30.3423 8.12262 30.0371 7.99722C29.7318 7.87182 29.4545 7.68804 29.2209 7.45635C28.9874 7.22467 28.8022 6.94963 28.6759 6.64697C28.5497 6.34432 28.4849 6.01996 28.4852 5.69247V5.69247ZM31 15.6451C34.3299 15.6451 37.7653 15.733 41.2175 15.9017L40.2777 18.7528C39.5082 21.0907 37.7389 22.6018 35.7683 22.6018H26.0279C23.9926 22.6018 22.1514 20.9386 21.437 18.4938L20.6891 15.9088C24.1652 15.7283 27.6294 15.638 31 15.638V15.6451ZM53.6884 42.7922C53.6914 43.9949 53.4265 45.1834 52.9127 46.273C52.3988 47.3625 51.6487 48.3263 50.7157 49.0955C50.0082 49.6784 49.2099 50.1438 48.352 50.4735C48.0211 50.6041 47.6903 50.7277 47.3547 50.8489C36.7979 54.8022 25.1471 54.7954 14.595 50.8299C14.2786 50.7134 13.9621 50.5923 13.6481 50.4735C12.7764 50.1383 11.9665 49.6631 11.2507 49.067C10.3284 48.2972 9.58739 47.3365 9.08001 46.2524C8.57263 45.1683 8.31116 43.9872 8.31399 42.7922V24.3861C8.32235 22.3104 9.11903 20.314 10.5455 18.7942C11.9719 17.2744 13.9236 16.3427 16.0118 16.1845L16.9851 16.1227L17.3975 16.0989L18.3564 19.3705C19.4712 23.21 22.5566 25.7855 26.0279 25.7855H35.7683C39.1582 25.7855 42.1285 23.4096 43.3367 19.7364L44.5354 16.0918L44.9669 16.1179C45.3049 16.1393 45.6478 16.1583 45.9834 16.1821C48.0719 16.3403 50.0238 17.2719 51.4506 18.7917C52.8774 20.3114 53.6747 22.3078 53.6836 24.3837L53.6884 42.7922ZM58.7828 36.1135C58.7839 36.7459 58.6093 37.3664 58.2782 37.9071C57.9471 38.4477 57.4722 38.8875 56.9057 39.1784V27.7052C57.4722 27.9961 57.9471 28.436 58.2782 28.9766C58.6093 29.5172 58.7839 30.1377 58.7828 30.7701V36.1135Z" fill="white"/>
<path d="M3.34191 0C1.49835 0 0 2.1597 0 4.81596C0 7.47222 1.49835 9.63427 3.34191 9.63427C5.18546 9.63427 6.68139 7.47222 6.68139 4.81596C6.68139 2.1597 5.18306 0 3.34191 0Z" transform="translate(37.456 30.231)" fill="white"/>
<path d="M3.33951 0C1.49835 0 0 2.1597 0 4.81596C0 7.47222 1.49835 9.63427 3.33951 9.63427C5.18066 9.63427 6.68139 7.47222 6.68139 4.81596C6.68139 2.1597 5.18306 0 3.33951 0Z" transform="translate(17.8626 30.231)" fill="white"/>
<path d="M6.43208 0.757899H1.41204V0H0V2.15731H7.84409V0H6.43208V0.757899Z" transform="translate(27.03 46.7122)" fill="white"/>
</g>
</svg>
