<svg width="760" height="633" viewBox="0 0 760 633" fill="none" xmlns="http://www.w3.org/2000/svg">
<g opacity="0.8">
<path opacity="0.8" d="M360.694 0H0V403.084H360.694V0Z" transform="translate(399.306)" fill="url(#paint0_linear)"/>
</g>
<path d="M348.767 0H0V125.181H348.767V0Z" transform="translate(405.267 269.122)" fill="white"/>
<path d="M13.515 0H0V64.1458H13.515V0Z" transform="translate(433.892 298.815)" fill="#64FFDA"/>
<g opacity="0.7">
<path opacity="0.7" d="M13.515 0H0V64.1458H13.515V0Z" transform="translate(460.572 298.815)" fill="#64FFDA"/>
</g>
<g opacity="0.6">
<path opacity="0.6" d="M13.515 0H0V64.1458H13.515V0Z" transform="translate(487.26 298.815)" fill="#64FFDA"/>
</g>
<g opacity="0.5">
<path opacity="0.5" d="M13.515 0H0V64.1458H13.515V0Z" transform="translate(513.94 298.815)" fill="#64FFDA"/>
</g>
<g opacity="0.5">
<path opacity="0.5" d="M13.515 0H0V64.1458H13.515V0Z" transform="translate(540.618 298.815)" fill="#64FFDA"/>
</g>
<g opacity="0.4">
<path opacity="0.4" d="M13.515 0H0V64.1458H13.515V0Z" transform="translate(567.298 298.815)" fill="#64FFDA"/>
</g>
<g opacity="0.3">
<path opacity="0.3" d="M13.515 0H0V64.1458H13.515V0Z" transform="translate(593.986 298.815)" fill="#64FFDA"/>
</g>
<path d="M32.6115 65.3058C50.6225 65.3058 65.223 50.6867 65.223 32.653C65.223 14.6192 50.6225 0 32.6115 0C14.6007 0 0 14.6192 0 32.653C0 50.6867 14.6007 65.3058 32.6115 65.3058Z" transform="translate(672.046 297.822)" fill="#6C63FF"/>
<path d="M348.767 0H0V125.181H348.767V0Z" transform="translate(405.267 139.065)" fill="white"/>
<path d="M13.515 0H0V64.1458H13.515V0Z" transform="translate(433.892 168.758)" fill="#64FFDA"/>
<g opacity="0.7">
<path opacity="0.7" d="M13.515 0H0V64.1458H13.515V0Z" transform="translate(460.572 168.758)" fill="#64FFDA"/>
</g>
<g opacity="0.6">
<path opacity="0.6" d="M13.515 0H0V64.1458H13.515V0Z" transform="translate(487.26 168.758)" fill="#64FFDA"/>
</g>
<g opacity="0.5">
<path opacity="0.5" d="M13.515 0H0V64.1458H13.515V0Z" transform="translate(513.94 168.758)" fill="#64FFDA"/>
</g>
<g opacity="0.5">
<path opacity="0.5" d="M13.515 0H0V64.1458H13.515V0Z" transform="translate(540.618 168.758)" fill="#64FFDA"/>
</g>
<g opacity="0.4">
<path opacity="0.4" d="M13.515 0H0V64.1458H13.515V0Z" transform="translate(567.298 168.758)" fill="#64FFDA"/>
</g>
<g opacity="0.3">
<path opacity="0.3" d="M13.515 0H0V64.1458H13.515V0Z" transform="translate(593.986 168.758)" fill="#64FFDA"/>
</g>
<path d="M32.6115 65.3058C50.6225 65.3058 65.223 50.6867 65.223 32.653C65.223 14.6192 50.6225 0 32.6115 0C14.6007 0 0 14.6192 0 32.653C0 50.6867 14.6007 65.3058 32.6115 65.3058Z" transform="translate(672.046 167.772)" fill="#6C63FF"/>
<path d="M348.767 0H0V125.181H348.767V0Z" transform="translate(405.267 9.00696)" fill="white"/>
<path d="M13.515 0H0V64.1458H13.515V0Z" transform="translate(433.892 38.7074)" fill="#64FFDA"/>
<g opacity="0.7">
<path opacity="0.7" d="M13.515 0H0V64.1458H13.515V0Z" transform="translate(460.572 38.7074)" fill="#64FFDA"/>
</g>
<g opacity="0.6">
<path opacity="0.6" d="M13.515 0H0V64.1458H13.515V0Z" transform="translate(487.26 38.7074)" fill="#64FFDA"/>
</g>
<g opacity="0.5">
<path opacity="0.5" d="M13.515 0H0V64.1458H13.515V0Z" transform="translate(513.94 38.7074)" fill="#64FFDA"/>
</g>
<g opacity="0.5">
<path opacity="0.5" d="M13.515 0H0V64.1458H13.515V0Z" transform="translate(540.618 38.7074)" fill="#64FFDA"/>
</g>
<g opacity="0.4">
<path opacity="0.4" d="M13.515 0H0V64.1458H13.515V0Z" transform="translate(567.298 38.7074)" fill="#64FFDA"/>
</g>
<g opacity="0.3">
<path opacity="0.3" d="M13.515 0H0V64.1458H13.515V0Z" transform="translate(593.986 38.7074)" fill="#64FFDA"/>
</g>
<path d="M35.1566 70.4025C54.5731 70.4025 70.3132 54.6421 70.3132 35.2012C70.3132 15.7601 54.5731 0 35.1566 0C15.7401 0 0 15.7601 0 35.2012C0 54.6421 15.7401 70.4025 35.1566 70.4025Z" transform="translate(669.503 35.1661)" fill="url(#paint1_linear)"/>
<path d="M35.1566 70.4025C54.5731 70.4025 70.3132 54.6421 70.3132 35.2012C70.3132 15.7601 54.5731 0 35.1566 0C15.7401 0 0 15.7601 0 35.2012C0 54.6421 15.7401 70.4025 35.1566 70.4025Z" transform="translate(669.503 166.094)" fill="url(#paint2_linear)"/>
<path d="M35.1566 70.4025C54.5731 70.4025 70.3132 54.6421 70.3132 35.2012C70.3132 15.7601 54.5731 0 35.1566 0C15.7401 0 0 15.7601 0 35.2012C0 54.6421 15.7401 70.4025 35.1566 70.4025Z" transform="translate(669.503 296.144)" fill="url(#paint3_linear)"/>
<path d="M32.6115 65.3058C50.6225 65.3058 65.223 50.6867 65.223 32.653C65.223 14.6192 50.6225 0 32.6115 0C14.6007 0 0 14.6192 0 32.653C0 50.6867 14.6007 65.3058 32.6115 65.3058Z" transform="translate(672.046 37.7142)" fill="#6C63FF"/>
<g opacity="0.8">
<path opacity="0.8" d="M482.731 322.468H0V13.8836C0 12.0604 0.358652 10.255 1.05548 8.5706C1.75232 6.88617 2.77367 5.35562 4.06126 4.06639C5.34884 2.77718 6.87743 1.75454 8.55975 1.05682C10.242 0.359105 12.0451 0 13.866 0H468.857C470.678 0 472.481 0.359105 474.162 1.05682C475.846 1.75454 477.374 2.77718 478.66 4.06639C479.949 5.35562 480.97 6.88617 481.668 8.5706C482.364 10.255 482.724 12.0604 482.724 13.8836L482.731 322.468Z" transform="translate(29.0226 288.559)" fill="url(#paint4_linear)"/>
</g>
<path d="M13.866 0H455.562C459.238 0 462.765 1.46274 465.365 4.06644C467.965 6.6701 469.426 10.2014 469.426 13.8836V316.793H0V13.8836C0 10.2014 1.46088 6.6701 4.06126 4.06644C6.66166 1.46274 10.1885 0 13.866 0Z" transform="translate(35.6747 294.237)" fill="white"/>
<path d="M439.202 0H0V288.438H439.202V0Z" transform="translate(50.7869 312.661)" fill="#F5F5F5"/>
<path opacity="0.8" d="M437.341 0H0V259.5H437.341V0Z" transform="translate(52.4719 326.671)" fill="#E0E0E0"/>
<path d="M437.341 0H0V13.787H437.341V0Z" transform="translate(52.4719 312.882)" fill="#F5F5F5"/>
<path d="M3.33487 6.67822C5.17667 6.67822 6.66974 5.18325 6.66974 3.33911C6.66974 1.49498 5.17667 0 3.33487 0C1.49307 0 0 1.49498 0 3.33911C0 5.18325 1.49307 6.67822 3.33487 6.67822Z" transform="translate(58.5098 316.221)" fill="#FF5252"/>
<path d="M3.33487 6.67822C5.17667 6.67822 6.66974 5.18325 6.66974 3.33911C6.66974 1.49498 5.17667 0 3.33487 0C1.49307 0 0 1.49498 0 3.33911C0 5.18325 1.49307 6.67822 3.33487 6.67822Z" transform="translate(67.6894 316.221)" fill="#FFFF00"/>
<path d="M3.33487 6.67822C5.17667 6.67822 6.66974 5.18325 6.66974 3.33911C6.66974 1.49498 5.17667 0 3.33487 0C1.49307 0 0 1.49498 0 3.33911C0 5.18325 1.49307 6.67822 3.33487 6.67822Z" transform="translate(76.8779 316.221)" fill="#69F0AE"/>
<g opacity="0.8">
<path opacity="0.8" d="M525.26 51.1937C498.389 53.2322 36.9121 52.4152 20.7819 51.1937C-0.359433 40.9918 0.000389929 1.41471 0.000389929 1.41471L211.633 0L212.344 12.0471H302.947L306.457 1.41471H541.022C541.022 1.41471 545.681 37.7318 525.26 51.1937Z" transform="translate(0 580.565)" fill="url(#paint5_linear)"/>
</g>
<path d="M534.395 0H304.412C305.316 1.02029 305.905 2.28206 306.106 3.6315C306.307 4.98093 306.111 6.35967 305.542 7.59959C304.974 8.8395 304.057 9.88699 302.905 10.6143C301.752 11.3416 300.414 11.7173 299.05 11.6956H211.291C209.928 11.7173 208.589 11.3416 207.436 10.6143C206.284 9.88699 205.367 8.8395 204.799 7.59959C204.23 6.35967 204.034 4.98093 204.235 3.6315C204.436 2.28206 205.024 1.02029 205.929 0H0.000371561C0.000371561 0 -0.350671 34.3752 20.5274 43.2327C36.4558 44.2958 492.289 44.99 518.827 43.2327C539.002 31.537 534.395 0 534.395 0Z" transform="translate(3.18562 585.168)" fill="#F5F5F5"/>
<path d="M2.83465 5.67648C4.40016 5.67648 5.66927 4.4058 5.66927 2.83828C5.66927 1.27076 4.40016 0 2.83465 0C1.26911 0 0 1.27076 0 2.83828C0 4.4058 1.26911 5.67648 2.83465 5.67648Z" transform="translate(48.1278 589.763)" fill="#E0E0E0"/>
<path d="M2.83465 5.67648C4.40016 5.67648 5.66929 4.4058 5.66929 2.83828C5.66929 1.27076 4.40016 0 2.83465 0C1.26911 0 0 1.27076 0 2.83828C0 4.4058 1.26911 5.67648 2.83465 5.67648Z" transform="translate(56.6229 589.763)" fill="#E0E0E0"/>
<path d="M2.83465 5.67648C4.40016 5.67648 5.66929 4.4058 5.66929 2.83828C5.66929 1.27076 4.40016 0 2.83465 0C1.26911 0 0 1.27076 0 2.83828C0 4.4058 1.26911 5.67648 2.83465 5.67648Z" transform="translate(65.1182 589.763)" fill="#E0E0E0"/>
<g opacity="0.7">
<path opacity="0.7" d="M85.1797 0L0 52.4854C0 52.4854 0 160.743 85.1797 219.783C170.359 160.734 170.359 52.4854 170.359 52.4854L85.1797 0Z" transform="translate(171.562 336.872)" fill="url(#paint6_linear)"/>
</g>
<path d="M80.3442 0L0 49.533C0 49.533 0 151.692 80.3879 207.411C160.776 151.692 160.776 49.533 160.776 49.533L80.3442 0Z" transform="translate(176.397 343.067)" fill="#6C63FF"/>
<path opacity="0.05" d="M1.37781 0L0 0.878711V206.497L1.37781 207.464C81.7659 151.745 81.7659 49.5857 81.7659 49.5857L1.37781 0Z" transform="translate(256.733 343.067)" fill="black"/>
<path d="M71.0854 0L0 43.8127C0 43.8127 0 134.179 71.0854 183.475C142.171 134.179 142.171 43.8127 142.171 43.8127L71.0854 0Z" transform="translate(185.657 355.036)" fill="#6C63FF"/>
<path opacity="0.08" d="M0 0V183.44C71.0854 134.144 71.0854 43.7774 71.0854 43.7774L0 0Z" transform="translate(256.741 355.378)" fill="black"/>
<path d="M0 181.893V0H150.069" transform="translate(209.746 87.3261)" stroke="#3AD29F" stroke-width="2" stroke-miterlimit="10" stroke-dasharray="12 12"/>
<path d="M0 181.893V0H150.069" transform="translate(163.234 31.9675)" stroke="#3AD29F" stroke-width="2" stroke-miterlimit="10" stroke-dasharray="12 12"/>
<path d="M78.9838 0V142.351H0" transform="translate(549.375 419.479)" stroke="#3AD29F" stroke-width="2" stroke-miterlimit="10" stroke-dasharray="12 12"/>
<path d="M78.9838 0V142.351H0" transform="translate(596.767 451.113)" stroke="#3AD29F" stroke-width="2" stroke-miterlimit="10" stroke-dasharray="12 12"/>
<defs>
<linearGradient id="paint0_linear" x2="1" gradientUnits="userSpaceOnUse" gradientTransform="translate(-222.225 403.084) scale(402.572 403.084) rotate(-90)">
<stop stop-color="#808080" stop-opacity="0.25"/>
<stop offset="0.54" stop-color="#808080" stop-opacity="0.12"/>
<stop offset="1" stop-color="#808080" stop-opacity="0.1"/>
</linearGradient>
<linearGradient id="paint1_linear" x2="1" gradientUnits="userSpaceOnUse" gradientTransform="translate(50823.7 8458.13) scale(5633.48 5640.63) rotate(-90)">
<stop stop-color="#808080" stop-opacity="0.25"/>
<stop offset="0.54" stop-color="#808080" stop-opacity="0.12"/>
<stop offset="1" stop-color="#808080" stop-opacity="0.1"/>
</linearGradient>
<linearGradient id="paint2_linear" x2="1" gradientUnits="userSpaceOnUse" gradientTransform="translate(50823.7 18948.1) scale(5633.48 5640.63) rotate(-90)">
<stop stop-color="#808080" stop-opacity="0.25"/>
<stop offset="0.54" stop-color="#808080" stop-opacity="0.12"/>
<stop offset="1" stop-color="#808080" stop-opacity="0.1"/>
</linearGradient>
<linearGradient id="paint3_linear" x2="1" gradientUnits="userSpaceOnUse" gradientTransform="translate(50823.7 29367.7) scale(5633.48 5640.63) rotate(-90)">
<stop stop-color="#808080" stop-opacity="0.25"/>
<stop offset="0.54" stop-color="#808080" stop-opacity="0.12"/>
<stop offset="1" stop-color="#808080" stop-opacity="0.1"/>
</linearGradient>
<linearGradient id="paint4_linear" x2="1" gradientUnits="userSpaceOnUse" gradientTransform="translate(52197.6 253196) scale(177148 118337) rotate(-90)">
<stop stop-color="#808080" stop-opacity="0.25"/>
<stop offset="0.54" stop-color="#808080" stop-opacity="0.12"/>
<stop offset="1" stop-color="#808080" stop-opacity="0.1"/>
</linearGradient>
<linearGradient id="paint5_linear" x2="1" gradientUnits="userSpaceOnUse" gradientTransform="translate(225152 42482.2) scale(32320.9 3129.85) rotate(-90)">
<stop stop-color="#808080" stop-opacity="0.25"/>
<stop offset="0.54" stop-color="#808080" stop-opacity="0.12"/>
<stop offset="1" stop-color="#808080" stop-opacity="0.1"/>
</linearGradient>
<linearGradient id="paint6_linear" x2="1" gradientUnits="userSpaceOnUse" gradientTransform="translate(35676.6 158971) scale(42612 54974.3) rotate(-90)">
<stop stop-color="#808080" stop-opacity="0.25"/>
<stop offset="0.54" stop-color="#808080" stop-opacity="0.12"/>
<stop offset="1" stop-color="#808080" stop-opacity="0.1"/>
</linearGradient>
</defs>
</svg>
