<svg width="133" height="41" viewBox="0 0 133 41" fill="none" xmlns="http://www.w3.org/2000/svg">
<path d="M5.76 7.68H1.824V24H14.328V20.352H5.76V7.68ZM25.8647 7.68H21.9287V24H25.8647V7.68ZM50.2584 7.68H46.2984V17.64L38.0424 7.68H34.0824V24H38.0424V14.016L46.2984 24H50.2584V7.68ZM70.8178 18.12C70.0258 19.56 68.5378 20.592 66.5218 20.592C63.6658 20.592 61.6738 18.312 61.6738 15.72C61.6738 13.032 63.6658 10.944 66.5218 10.944C68.5858 10.944 70.0978 11.928 70.8658 13.416L74.2018 11.472C72.7378 9.024 70.0018 7.392 66.5218 7.392C61.4098 7.392 57.6898 11.184 57.6898 15.72C57.6898 20.544 61.4098 24.288 66.5218 24.288C69.9778 24.288 72.6898 22.488 74.1538 20.04L70.8178 18.12Z" transform="translate(53 9)" fill="white"/>
<path d="M5.76 7.68H6.26V7.18H5.76V7.68ZM1.824 7.68V7.18H1.324V7.68H1.824ZM1.824 24H1.324V24.5H1.824V24ZM14.328 24V24.5H14.828V24H14.328ZM14.328 20.352H14.828V19.852H14.328V20.352ZM5.76 20.352H5.26V20.852H5.76V20.352ZM5.76 7.18H1.824V8.18H5.76V7.18ZM1.324 7.68V24H2.324V7.68H1.324ZM1.824 24.5H14.328V23.5H1.824V24.5ZM14.828 24V20.352H13.828V24H14.828ZM14.328 19.852H5.76V20.852H14.328V19.852ZM6.26 20.352V7.68H5.26V20.352H6.26ZM25.8647 7.68H26.3647V7.18H25.8647V7.68ZM21.9287 7.68V7.18H21.4287V7.68H21.9287ZM21.9287 24H21.4287V24.5H21.9287V24ZM25.8647 24V24.5H26.3647V24H25.8647ZM25.8647 7.18H21.9287V8.18H25.8647V7.18ZM21.4287 7.68V24H22.4287V7.68H21.4287ZM21.9287 24.5H25.8647V23.5H21.9287V24.5ZM26.3647 24V7.68H25.3647V24H26.3647ZM50.2584 7.68H50.7584V7.18H50.2584V7.68ZM46.2984 7.68V7.18H45.7984V7.68H46.2984ZM46.2984 17.64L45.9135 17.9591L46.7984 19.0267V17.64H46.2984ZM38.0424 7.68L38.4274 7.36091L38.2774 7.18H38.0424V7.68ZM34.0824 7.68V7.18H33.5824V7.68H34.0824ZM34.0824 24H33.5824V24.5H34.0824V24ZM38.0424 24V24.5H38.5424V24H38.0424ZM38.0424 14.016L38.4278 13.6974L37.5424 12.6267V14.016H38.0424ZM46.2984 24L45.9131 24.3186L46.0631 24.5H46.2984V24ZM50.2584 24V24.5H50.7584V24H50.2584ZM50.2584 7.18H46.2984V8.18H50.2584V7.18ZM45.7984 7.68V17.64H46.7984V7.68H45.7984ZM46.6834 17.3209L38.4274 7.36091L37.6575 7.99909L45.9135 17.9591L46.6834 17.3209ZM38.0424 7.18H34.0824V8.18H38.0424V7.18ZM33.5824 7.68V24H34.5824V7.68H33.5824ZM34.0824 24.5H38.0424V23.5H34.0824V24.5ZM38.5424 24V14.016H37.5424V24H38.5424ZM37.6571 14.3346L45.9131 24.3186L46.6838 23.6814L38.4278 13.6974L37.6571 14.3346ZM46.2984 24.5H50.2584V23.5H46.2984V24.5ZM50.7584 24V7.68H49.7584V24H50.7584ZM70.8178 18.12L71.0672 17.6866L70.6254 17.4324L70.3797 17.879L70.8178 18.12ZM70.8658 13.416L70.4215 13.6453L70.6629 14.113L71.1176 13.848L70.8658 13.416ZM74.2018 11.472L74.4536 11.904L74.8905 11.6494L74.6309 11.2154L74.2018 11.472ZM74.1538 20.04L74.5829 20.2966L74.8439 19.8603L74.4032 19.6066L74.1538 20.04ZM70.3797 17.879C69.6715 19.1666 68.3473 20.092 66.5218 20.092V21.092C68.7284 21.092 70.3801 19.9534 71.2559 18.361L70.3797 17.879ZM66.5218 20.092C63.9627 20.092 62.1738 18.0571 62.1738 15.72H61.1738C61.1738 18.5669 63.3689 21.092 66.5218 21.092V20.092ZM62.1738 15.72C62.1738 13.3065 63.9436 11.444 66.5218 11.444V10.444C63.388 10.444 61.1738 12.7575 61.1738 15.72H62.1738ZM66.5218 11.444C68.4098 11.444 69.7443 12.3332 70.4215 13.6453L71.3101 13.1867C70.4514 11.5228 68.7618 10.444 66.5218 10.444V11.444ZM71.1176 13.848L74.4536 11.904L73.9501 11.04L70.6141 12.984L71.1176 13.848ZM74.6309 11.2154C73.0711 8.60713 70.1666 6.892 66.5218 6.892V7.892C69.837 7.892 72.4045 9.44087 73.7727 11.7286L74.6309 11.2154ZM66.5218 6.892C61.1503 6.892 57.1898 10.8915 57.1898 15.72H58.1898C58.1898 11.4765 61.6693 7.892 66.5218 7.892V6.892ZM57.1898 15.72C57.1898 20.8292 61.1428 24.788 66.5218 24.788V23.788C61.6768 23.788 58.1898 20.2588 58.1898 15.72H57.1898ZM66.5218 24.788C70.1637 24.788 73.0339 22.8868 74.5829 20.2966L73.7247 19.7834C72.3457 22.0892 69.7919 23.788 66.5218 23.788V24.788ZM74.4032 19.6066L71.0672 17.6866L70.5684 18.5534L73.9044 20.4734L74.4032 19.6066Z" transform="translate(53 9)" fill="#F7F7F7"/>
<path d="M40.3847 17.4913C40.3655 15.427 39.576 13.445 38.1723 11.9372C36.7685 10.4293 34.8527 9.50539 32.8035 9.34799C29.6696 9.11899 26.4184 8.99082 23.1416 8.96518V8.00815C24.0812 7.73219 24.8903 7.12508 25.4203 6.29827C25.9502 5.47147 26.1656 4.48041 26.0268 3.50697C25.8881 2.53353 25.4045 1.643 24.6648 0.998812C23.9251 0.354628 22.979 0 22 0C21.021 0 20.0749 0.354628 19.3352 0.998812C18.5955 1.643 18.112 2.53353 17.9732 3.50697C17.8344 4.48041 18.0498 5.47147 18.5798 6.29827C19.1097 7.12508 19.9188 7.73219 20.8584 8.00815V8.96518C17.5816 8.99082 14.3304 9.11899 11.1965 9.34799C9.14732 9.50539 7.23147 10.4293 5.82773 11.9372C4.42398 13.445 3.6345 15.427 3.61534 17.4913C2.58593 17.7515 1.67196 18.3483 1.01741 19.1878C0.362853 20.0272 0.00491539 21.0615 0 22.1278V25.9696C0.00462261 27.0359 0.362443 28.0704 1.01704 28.9099C1.67164 29.7493 2.58579 30.3461 3.61534 30.606V30.7769C3.6119 31.8617 3.82413 32.9362 4.23956 33.9375C4.655 34.9388 5.26529 35.8467 6.03464 36.608C6.60657 37.1751 7.25833 37.6547 7.96906 38.0316C8.25653 38.1846 8.5525 38.3209 8.85547 38.44C17.2891 41.8533 26.7109 41.8533 35.1445 38.44C35.435 38.3258 35.7189 38.1957 35.9952 38.0503C36.7085 37.6755 37.3636 37.1982 37.9398 36.6336C38.7167 35.8713 39.3333 34.9602 39.7532 33.9542C40.1732 32.9482 40.3879 31.8678 40.3847 30.7769V30.606C41.4142 30.3461 42.3284 29.7493 42.983 28.9099C43.6376 28.0704 43.9954 27.0359 44 25.9696V22.1261C43.9947 21.0601 43.6366 20.0262 42.9821 19.1871C42.3276 18.348 41.4138 17.7514 40.3847 17.4913V17.4913ZM3.61534 28.1759C3.21324 27.9666 2.87624 27.6502 2.64127 27.2614C2.40629 26.8725 2.28242 26.4262 2.2832 25.9713V22.1278C2.28242 21.6729 2.40629 21.2266 2.64127 20.8377C2.87624 20.4488 3.21324 20.1324 3.61534 19.9232V28.1759ZM20.2153 4.09458C20.2156 3.74009 20.3206 3.39365 20.5169 3.09906C20.7132 2.80448 20.9921 2.57496 21.3182 2.43954C21.6443 2.30411 22.0031 2.26886 22.3492 2.33822C22.6953 2.40759 23.0132 2.57847 23.2626 2.82925C23.512 3.08004 23.6818 3.39946 23.7505 3.74717C23.8193 4.09488 23.7838 4.45524 23.6487 4.78272C23.5136 5.1102 23.2848 5.39009 22.9914 5.587C22.6979 5.78391 22.3529 5.88901 22 5.88901C21.7655 5.88901 21.5333 5.84259 21.3166 5.75239C21.1 5.66219 20.9032 5.52999 20.7374 5.36334C20.5717 5.19669 20.4402 4.99886 20.3507 4.78116C20.2611 4.56346 20.2151 4.33015 20.2153 4.09458V4.09458ZM22 11.2535C24.3632 11.2535 26.8012 11.3167 29.2511 11.4381L28.5842 13.4889C28.0381 15.1705 26.7825 16.2574 25.384 16.2574H18.4714C17.027 16.2574 15.7204 15.0611 15.2134 13.3026L14.6826 11.4432C17.1495 11.3133 19.6079 11.2484 22 11.2484V11.2535ZM38.1015 30.7803C38.1036 31.6454 37.9156 32.5004 37.5509 33.2841C37.1863 34.0678 36.6539 34.761 35.9918 35.3143C35.4897 35.7336 34.9231 36.0683 34.3143 36.3055C34.0795 36.3995 33.8447 36.4884 33.6065 36.5755C26.1146 39.4191 17.8463 39.4143 10.3577 36.5618C10.1332 36.4781 9.9086 36.3909 9.68573 36.3055C9.06715 36.0644 8.49234 35.7226 7.98439 35.2938C7.3298 34.7401 6.80396 34.0491 6.44388 33.2693C6.0838 32.4895 5.89824 31.6399 5.90025 30.7803V17.5409C5.90619 16.0479 6.47157 14.6118 7.48389 13.5186C8.49621 12.4255 9.88123 11.7553 11.3632 11.6415L12.054 11.597L12.3466 11.5799L13.0272 13.9332C13.8183 16.6949 16.0079 18.5474 18.4714 18.5474H25.384C27.7897 18.5474 29.8976 16.8385 30.7551 14.1964L31.6058 11.5748L31.912 11.5936C32.1519 11.609 32.3952 11.6227 32.6334 11.6397C34.1155 11.7535 35.5007 12.4237 36.5133 13.5168C37.5259 14.61 38.0917 16.046 38.0981 17.5392L38.1015 30.7803ZM41.7168 25.9764C41.7176 26.4313 41.5937 26.8776 41.3587 27.2665C41.1238 27.6553 40.7868 27.9717 40.3847 28.181V19.9283C40.7868 20.1376 41.1238 20.4539 41.3587 20.8428C41.5937 21.2317 41.7176 21.678 41.7168 22.1329V25.9764Z" fill="white" fill-opacity="0.9"/>
<path d="M2.37168 0C1.06335 0 0 1.55347 0 3.46411C0 5.37475 1.06335 6.92991 2.37168 6.92991C3.68 6.92991 4.74163 5.37475 4.74163 3.46411C4.74163 1.55347 3.6783 0 2.37168 0Z" transform="translate(26.5817 21.745)" fill="white" fill-opacity="0.9"/>
<path d="M2.36997 0C1.06335 0 0 1.55347 0 3.46411C0 5.37475 1.06335 6.92991 2.36997 6.92991C3.6766 6.92991 4.74163 5.37475 4.74163 3.46411C4.74163 1.55347 3.6783 0 2.36997 0Z" transform="translate(12.6767 21.745)" fill="white" fill-opacity="0.9"/>
<path d="M4.5647 0.545155H1.00209V0H0V1.55175H5.56677V0H4.5647V0.545155Z" transform="translate(19.1826 33.6002)" fill="white" fill-opacity="0.9"/>
</svg>
