<svg width="95" height="63" viewBox="0 0 95 63" fill="none" xmlns="http://www.w3.org/2000/svg">
<path d="M9.552 41.384C4.784 41.128 2.4 38.2 2.4 32.6V16.808H5.424V31.928C5.424 34.392 5.808 36.136 6.576 37.16C7.248 38.024 8.352 38.52 9.888 38.648L9.552 41.384ZM15.6427 41H12.6188V24.68H15.6427V41ZM16.3628 19.88C16.3628 20.52 16.1388 21.064 15.6908 21.512C15.2428 21.96 14.6988 22.184 14.0587 22.184C13.4187 22.184 12.8747 21.96 12.4268 21.512C11.9788 21.064 11.7548 20.52 11.7548 19.88C11.7548 19.24 11.9788 18.696 12.4268 18.248C12.8747 17.8 13.4187 17.576 14.0587 17.576C14.6988 17.576 15.2428 17.8 15.6908 18.248C16.1388 18.696 16.3628 19.24 16.3628 19.88ZM35.9509 41H32.9269V31.736C32.9269 28.408 31.4069 26.744 28.3669 26.744C27.2469 26.744 26.1429 27.256 25.0549 28.28C23.9989 29.272 23.4709 30.264 23.4709 31.256V41H20.4469V29C20.4469 27.016 20.3189 25.56 20.0629 24.632H22.8949C23.1189 25.176 23.2309 25.832 23.2309 26.6C24.7669 25 26.6229 24.2 28.7989 24.2C30.9749 24.2 32.7029 24.872 33.9829 26.216C35.2949 27.56 35.9509 29.4 35.9509 31.736V41ZM53.7997 39.992C52.2637 40.952 50.3917 41.432 48.1837 41.432C45.5917 41.432 43.5117 40.632 41.9438 39.032C40.3758 37.4 39.5918 35.304 39.5918 32.744C39.5918 30.152 40.3758 28.056 41.9438 26.456C43.5117 24.856 45.5917 24.056 48.1837 24.056C50.3598 24.056 52.2318 24.536 53.7997 25.496L52.7438 27.992C51.2397 27.064 49.6877 26.6 48.0877 26.6C46.4557 26.6 45.1437 27.176 44.1517 28.328C43.1598 29.448 42.6638 30.92 42.6638 32.744C42.6638 34.6 43.1598 36.088 44.1517 37.208C45.1437 38.328 46.4557 38.888 48.0877 38.888C49.6877 38.888 51.2397 38.424 52.7438 37.496L53.7997 39.992Z" transform="translate(40)" fill="white"/>
<path d="M9.552 41.384L9.52519 41.8833L9.99137 41.9083L10.0483 41.4449L9.552 41.384ZM2.4 16.808V16.308H1.9V16.808H2.4ZM5.424 16.808H5.924V16.308H5.424V16.808ZM6.576 37.16L6.17594 37.46L6.18132 37.467L6.576 37.16ZM9.888 38.648L10.3843 38.7089L10.4476 38.1929L9.92952 38.1497L9.888 38.648ZM9.57881 40.8847C7.2958 40.7621 5.6563 40.0074 4.57573 38.6803C3.48419 37.3397 2.9 35.3386 2.9 32.6H1.9C1.9 35.4614 2.50781 37.7243 3.80027 39.3117C5.1037 40.9126 7.0402 41.7499 9.52519 41.8833L9.57881 40.8847ZM2.9 32.6V16.808H1.9V32.6H2.9ZM2.4 17.308H5.424V16.308H2.4V17.308ZM4.924 16.808V31.928H5.924V16.808H4.924ZM4.924 31.928C4.924 34.4149 5.30586 36.2998 6.176 37.46L6.976 36.86C6.31014 35.9722 5.924 34.3691 5.924 31.928H4.924ZM6.18132 37.467C6.96946 38.4803 8.22952 39.0115 9.84648 39.1463L9.92952 38.1497C8.47448 38.0285 7.52654 37.5677 6.97068 36.853L6.18132 37.467ZM9.39173 38.5871L9.05573 41.3231L10.0483 41.4449L10.3843 38.7089L9.39173 38.5871ZM15.6427 41V41.5H16.1427V41H15.6427ZM12.6188 41H12.1188V41.5H12.6188V41ZM12.6188 24.68V24.18H12.1188V24.68H12.6188ZM15.6427 24.68H16.1427V24.18H15.6427V24.68ZM15.6908 21.512L15.3372 21.1584L15.3372 21.1584L15.6908 21.512ZM15.6908 18.248L15.3372 18.6016L15.3372 18.6016L15.6908 18.248ZM15.6427 40.5H12.6188V41.5H15.6427V40.5ZM13.1188 41V24.68H12.1188V41H13.1188ZM12.6188 25.18H15.6427V24.18H12.6188V25.18ZM15.1427 24.68V41H16.1427V24.68H15.1427ZM15.8628 19.88C15.8628 20.3889 15.6904 20.8053 15.3372 21.1584L16.0443 21.8656C16.5871 21.3227 16.8628 20.6511 16.8628 19.88H15.8628ZM15.3372 21.1584C14.984 21.5116 14.5677 21.684 14.0587 21.684V22.684C14.8298 22.684 15.5015 22.4084 16.0443 21.8656L15.3372 21.1584ZM14.0587 21.684C13.5498 21.684 13.1335 21.5116 12.7803 21.1584L12.0732 21.8656C12.616 22.4084 13.2877 22.684 14.0587 22.684V21.684ZM12.7803 21.1584C12.4271 20.8053 12.2548 20.3889 12.2548 19.88H11.2548C11.2548 20.6511 11.5304 21.3227 12.0732 21.8656L12.7803 21.1584ZM12.2548 19.88C12.2548 19.3711 12.4271 18.9547 12.7803 18.6016L12.0732 17.8944C11.5304 18.4373 11.2548 19.1089 11.2548 19.88H12.2548ZM12.7803 18.6016C13.1335 18.2484 13.5498 18.076 14.0587 18.076V17.076C13.2877 17.076 12.616 17.3516 12.0732 17.8944L12.7803 18.6016ZM14.0587 18.076C14.5677 18.076 14.984 18.2484 15.3372 18.6016L16.0443 17.8944C15.5015 17.3516 14.8298 17.076 14.0587 17.076V18.076ZM15.3372 18.6016C15.6904 18.9547 15.8628 19.3711 15.8628 19.88H16.8628C16.8628 19.1089 16.5871 18.4373 16.0443 17.8944L15.3372 18.6016ZM35.9509 41V41.5H36.4509V41H35.9509ZM32.9269 41H32.4269V41.5H32.9269V41ZM25.0549 28.28L25.3972 28.6444L25.3976 28.6441L25.0549 28.28ZM23.4709 41V41.5H23.9709V41H23.4709ZM20.4469 41H19.9469V41.5H20.4469V41ZM20.0629 24.632V24.132H19.4063L19.5809 24.765L20.0629 24.632ZM22.8949 24.632L23.3572 24.4416L23.2297 24.132H22.8949V24.632ZM23.2309 26.6H22.7309V27.8428L23.5916 26.9463L23.2309 26.6ZM33.9829 26.216L33.6208 26.5609L33.6251 26.5653L33.9829 26.216ZM35.9509 40.5H32.9269V41.5H35.9509V40.5ZM33.4269 41V31.736H32.4269V41H33.4269ZM33.4269 31.736C33.4269 30.0056 33.0327 28.6145 32.156 27.6548C31.2716 26.6865 29.9762 26.244 28.3669 26.244V27.244C29.7976 27.244 30.7822 27.6335 31.4177 28.3292C32.0611 29.0335 32.4269 30.1384 32.4269 31.736H33.4269ZM28.3669 26.244C27.0818 26.244 25.8612 26.8344 24.7122 27.9159L25.3976 28.6441C26.4245 27.6776 27.412 27.244 28.3669 27.244V26.244ZM24.7125 27.9156C23.6027 28.9582 22.9709 30.0728 22.9709 31.256H23.9709C23.9709 30.4552 24.3951 29.5858 25.3972 28.6444L24.7125 27.9156ZM22.9709 31.256V41H23.9709V31.256H22.9709ZM23.4709 40.5H20.4469V41.5H23.4709V40.5ZM20.9469 41V29H19.9469V41H20.9469ZM20.9469 29C20.9469 27.0081 20.8198 25.4955 20.5449 24.499L19.5809 24.765C19.818 25.6245 19.9469 27.0239 19.9469 29H20.9469ZM20.0629 25.132H22.8949V24.132H20.0629V25.132ZM22.4325 24.8224C22.6253 25.2906 22.7309 25.8783 22.7309 26.6H23.7309C23.7309 25.7857 23.6124 25.0614 23.3572 24.4416L22.4325 24.8224ZM23.5916 26.9463C25.0353 25.4423 26.762 24.7 28.7989 24.7V23.7C26.4838 23.7 24.4984 24.5577 22.8702 26.2537L23.5916 26.9463ZM28.7989 24.7C30.8637 24.7 32.4515 25.3331 33.6208 26.5608L34.3449 25.8712C32.9542 24.4109 31.0861 23.7 28.7989 23.7V24.7ZM33.6251 26.5653C34.8249 27.7943 35.4509 29.497 35.4509 31.736H36.4509C36.4509 29.303 35.7648 27.3257 34.3407 25.8667L33.6251 26.5653ZM35.4509 31.736V41H36.4509V31.736H35.4509ZM53.7997 39.992L54.0647 40.416L54.4264 40.19L54.2602 39.7972L53.7997 39.992ZM41.9438 39.032L41.5832 39.3784L41.5866 39.382L41.9438 39.032ZM41.9438 26.456L41.5866 26.106L41.5866 26.106L41.9438 26.456ZM53.7997 25.496L54.2602 25.6908L54.428 25.2944L54.0608 25.0696L53.7997 25.496ZM52.7438 27.992L52.4812 28.4175L52.9772 28.7235L53.2042 28.1868L52.7438 27.992ZM44.1517 28.328L44.5261 28.6595L44.5306 28.6543L44.1517 28.328ZM44.1517 37.208L44.526 36.8765L44.526 36.8765L44.1517 37.208ZM52.7438 37.496L53.2042 37.3012L52.9772 36.7645L52.4812 37.0705L52.7438 37.496ZM53.5348 39.568C52.094 40.4684 50.3186 40.932 48.1837 40.932V41.932C50.4649 41.932 52.4335 41.4356 54.0647 40.416L53.5348 39.568ZM48.1837 40.932C45.7032 40.932 43.7599 40.1709 42.3009 38.682L41.5866 39.382C43.2636 41.0931 45.4803 41.932 48.1837 41.932V40.932ZM42.3043 38.6856C40.8377 37.1592 40.0918 35.1932 40.0918 32.744H39.0918C39.0918 35.4148 39.9138 37.6408 41.5832 39.3784L42.3043 38.6856ZM40.0918 32.744C40.0918 30.2607 40.8389 28.2978 42.3009 26.806L41.5866 26.106C39.9126 27.8142 39.0918 30.0433 39.0918 32.744H40.0918ZM42.3009 26.806C43.7599 25.3171 45.7032 24.556 48.1837 24.556V23.556C45.4803 23.556 43.2636 24.3949 41.5866 26.106L42.3009 26.806ZM48.1837 24.556C50.2847 24.556 52.0627 25.0187 53.5387 25.9224L54.0608 25.0696C52.4008 24.0533 50.4348 23.556 48.1837 23.556V24.556ZM53.3393 25.3012L52.2833 27.7972L53.2042 28.1868L54.2602 25.6908L53.3393 25.3012ZM53.0063 27.5665C51.4319 26.595 49.79 26.1 48.0877 26.1V27.1C49.5855 27.1 51.0476 27.533 52.4812 28.4175L53.0063 27.5665ZM48.0877 26.1C46.3223 26.1 44.8675 26.7306 43.7729 28.0017L44.5306 28.6543C45.42 27.6214 46.5892 27.1 48.0877 27.1V26.1ZM43.7775 27.9965C42.6877 29.2269 42.1638 30.8258 42.1638 32.744H43.1638C43.1638 31.0142 43.6318 29.6691 44.526 28.6595L43.7775 27.9965ZM42.1638 32.744C42.1638 34.6916 42.6863 36.3075 43.7775 37.5395L44.526 36.8765C43.6332 35.8685 43.1638 34.5084 43.1638 32.744H42.1638ZM43.7775 37.5395C44.8736 38.7771 46.3272 39.388 48.0877 39.388V38.388C46.5843 38.388 45.4139 37.8789 44.526 36.8765L43.7775 37.5395ZM48.0877 39.388C49.79 39.388 51.4319 38.893 53.0063 37.9215L52.4812 37.0705C51.0476 37.955 49.5855 38.388 48.0877 38.388V39.388ZM52.2833 37.6908L53.3393 40.1868L54.2602 39.7972L53.2042 37.3012L52.2833 37.6908Z" transform="translate(40)" fill="#F7F7F7"/>
<path d="M20.7712 48.5735C20.1442 48.2342 19.9247 47.4619 20.266 46.8535C20.2792 46.8159 20.6967 46.0461 20.9866 44.7306C20.9866 44.7306 21.2185 43.7026 21.1853 42.1397L21.182 41.9976C21.182 41.7319 21.1688 41.4711 21.1506 41.212H7.66794C7.27036 41.1986 6.95065 40.8744 6.95065 40.4682C6.95065 40.067 7.27119 39.7411 7.66794 39.7268H20.9551C20.7414 38.6337 20.4167 37.6859 20.1475 37.0173H11.2022C10.9189 37.0089 10.692 36.7724 10.692 36.4857C10.692 36.1982 10.9156 35.965 11.1972 35.9592H11.2055L11.2138 35.9567L11.2221 35.96H19.6621C17.9808 32.316 13.1354 28.6838 13.1188 28.6721C4.01691 21.4727 4.36479 18.5977 4.6961 19.0724C8.47302 23.6658 12.3295 25.6031 15.24 27.8263C16.822 29.0323 18.3584 30.2943 19.4112 31.3098C26.5178 38.9437 25.0062 46.0169 23.69 47.6851C23.5459 47.8689 22.8866 48.7992 21.7585 48.8C21.4603 48.8 21.1323 48.7331 20.7704 48.5743L20.7712 48.5735ZM1.1544 47.6625C0.85871 47.2797 0.524917 46.6094 0.301283 45.7127C0.301283 45.7127 0.268152 45.5873 0.256557 45.5263C0.223426 45.3742 0.191951 45.217 0.165447 45.0566H0.172073C-0.246205 42.3612 0.114094 38.54 2.71652 34.1915C4.51967 31.3883 6.40648 29.5697 7.85347 28.2091C7.98185 28.0862 8.51774 27.6098 8.79273 27.3674C9.26319 27.7828 9.75104 28.2032 10.2588 28.6269C8.86562 29.9784 7.5702 31.4853 6.84463 32.5108H11.5633C11.7787 32.5191 11.9443 32.6946 11.9443 32.9036C11.9443 33.1209 11.7787 33.2964 11.555 33.2964H6.30294L5.89378 33.9567C5.11769 35.2438 4.33497 36.8819 3.76512 39.1468C3.35347 41.0607 3.46031 42.749 3.65082 43.9274H13.0351C13.3184 43.9358 13.5454 44.1698 13.5454 44.4623C13.5454 44.7549 13.3184 44.9805 13.036 44.9889H13.0277L13.0194 44.9956L13.0111 44.9922H3.85954L3.87611 45.0591L3.97716 45.4352C4.22812 46.3077 4.4882 46.8142 4.50145 46.8376C4.83773 47.4477 4.61989 48.22 4.01029 48.5576C3.65413 48.7189 3.3311 48.7833 3.04121 48.7833C1.93712 48.7833 1.29355 47.8556 1.15109 47.6692L1.1544 47.6625ZM20.102 29.7226C16.3226 25.1326 12.4669 23.1953 9.55805 20.9721C7.97605 19.7669 6.43878 18.5066 5.38605 17.4869C-1.71887 9.85214 -0.204791 2.7815 1.10968 1.11413C1.2919 0.880112 2.29576 -0.543209 4.02934 0.225702C4.65882 0.568369 4.87666 1.33728 4.53458 1.94739C4.52216 1.98918 4.10388 2.75809 3.81399 4.07026C3.81399 4.07026 3.58207 5.09826 3.6152 6.66115L3.61934 6.80324C3.61769 7.07904 3.63591 7.34398 3.65579 7.60558H17.4465C17.8441 7.62229 18.1638 7.94574 18.1638 8.34942C18.1638 8.7556 17.8441 9.07654 17.4473 9.09325H3.85291C4.06826 10.1881 4.39626 11.1376 4.66462 11.8012H13.9148C14.1964 11.8095 14.425 12.0435 14.425 12.3344C14.425 12.6269 14.1964 12.8584 13.9148 12.8609H13.9065L13.8982 12.8651L13.8899 12.8634H5.14585C6.83552 16.499 11.6643 20.1263 11.6768 20.1347C20.1417 26.8208 20.4333 29.7795 20.1682 29.7795C20.1483 29.7795 20.1252 29.7628 20.102 29.7293V29.7226ZM14.4747 20.1932C15.8827 18.8308 17.1641 17.3465 17.8971 16.3152H13.1776C12.9639 16.3068 12.7966 16.1338 12.7966 15.9224C12.7966 15.7009 12.9639 15.5312 13.1925 15.5245H18.4396C18.5829 15.2955 18.848 14.8593 18.848 14.8593C19.6265 13.5788 20.4076 11.9424 20.9766 9.67244C21.3883 7.76187 21.2831 6.07277 21.0926 4.89767H11.7082C11.4266 4.88932 11.1997 4.6553 11.1997 4.36612C11.1997 4.07694 11.4266 3.83958 11.7082 3.83958H11.7149L11.7232 3.83123C11.7232 3.83123 11.7298 3.83373 11.7348 3.83373H20.8747C20.8706 3.81368 20.7555 3.38242 20.7555 3.38242C20.4987 2.51321 20.2419 2.00841 20.2254 1.9825C19.8858 1.37238 20.1094 0.600964 20.7141 0.264147C22.412 -0.500585 23.3977 0.91605 23.5799 1.15508C23.8698 1.53954 24.2094 2.20816 24.4247 3.10912H24.4346C24.4462 3.16762 24.4595 3.23448 24.4678 3.2955C24.5026 3.44594 24.534 3.60473 24.5605 3.76604H24.5523C24.9714 6.4614 24.6102 10.2801 22.0062 14.6311C20.2055 17.4309 18.3203 19.2487 16.8709 20.6102C16.735 20.7356 16.1817 21.212 15.9217 21.446C15.4578 21.0281 14.9708 20.6102 14.4589 20.184" transform="translate(0 63) scale(1.25 -1.25)" fill="white"/>
</svg>
