<svg xmlns="http://www.w3.org/2000/svg" viewBox="0 0 2402 2580"><filter id="b"><feGaussianBlur stdDeviation="2" /></filter><path fill="#f4f5f6" d="M0 0h2408v2580H0z"/><g filter="url(#b)" transform="translate(5 5) scale(10.07813)" fill-opacity=".5"><path fill="#a6b8a3" d="M6 3h19v70H6z"/><ellipse fill="#7c7d80" cx="73" cy="20" rx="65" ry="3"/><path fill="#251324" d="M5 61h13v11H5z"/><ellipse fill="#9da9a9" cx="63" cy="176" rx="92" ry="2"/><path fill="#68686c" d="M101 161h60v4h-60z"/><ellipse fill="#feffff" rx="1" ry="1" transform="matrix(-74.99158 -160.83637 54.45055 -25.38812 208.3 172.3)"/><path fill="#848990" d="M20 198h73v3H20z"/><path fill="#fff" d="M0 36h25v23H0z"/><ellipse fill="#cfcdcb" cx="175" cy="7" rx="229" ry="5"/><path fill="#fff" d="M30 233.7l-29 .5-3-162 29-.4z"/><path fill="#55b856" d="M17 26L-2 36l40-5z"/><ellipse fill="#a4afc3" cx="136" cy="131" rx="110" ry="2"/><ellipse fill="#979796" cx="57" cy="187" rx="31" ry="2"/><path fill="#6b6c6f" d="M29 79h56v2H29z"/><path fill="#473e45" d="M44.8 92.5l1.2 4.8-8.8 2.2-1.2-4.8z"/><ellipse fill="#a7b4b7" cx="64" cy="31" rx="118" ry="2"/><ellipse fill="#92b0e6" cx="81" cy="234" rx="48" ry="2"/><path fill="#9ea1a5" d="M90 112h74v3H90z"/><path fill="#fff" d="M5 58l-21 189 54 24z"/><ellipse fill="#989ea5" cx="69" cy="147" rx="38" ry="2"/><ellipse fill="#8e9aa6" cx="64" cy="65" rx="35" ry="2"/><path fill="#fff" d="M140 12l114 1v72z"/><path fill="#93b1e6" d="M41 218h79v3H41z"/><path fill="#fff" d="M19 50h9v206h-9z"/><path fill="#58c439" d="M36 179.8l-3 2.6-5-6.2 3-2.6z"/><path fill="#acadb1" d="M10 46h102v2H10z"/><ellipse fill="#a9aaac" cx="71" cy="22" rx="58" ry="2"/><path fill="#fff" d="M0 11h125v6H0z"/><path fill="#b4b5b8" d="M40 95h99v3H40z"/><ellipse fill="#6f97df" cx="215" cy="112" rx="15" ry="2"/><path fill="#fff" d="M172 67l62 134-47 10z"/><ellipse fill="#abb6cc" cx="58" cy="113" rx="38" ry="2"/><path fill="#57c853" d="M6 28h20v6H6z"/><path fill="#fff" d="M106 179h78v77h-78z"/><ellipse fill="#8d9095" cx="43" cy="214" rx="12" ry="2"/><path fill="#fff" d="M12.1 49.3L-6.2 3.5l-5.6 51.6L133.8 70z"/><path fill="#fff" d="M33.8 28L18-16l11.4 37.3-43.8 6.2zM87 73h152v39H87z"/><ellipse fill="#e8eaea" cx="122" rx="122" ry="9"/><path fill="#fff" d="M129 69L76 32l-65 5z"/><ellipse fill="#fff" cx="82" cy="183" rx="238" ry="4"/><path fill="#8d9095" d="M134.5 46l29 1v1l-29-1z"/><ellipse fill="#2d5598" cx="32" cy="200" rx="3" ry="3"/><path fill="#000015" d="M6 68h13v3H6z"/><path fill="#adb0b4" d="M41.9 227.2l-13.8 1.2 19.2 4.5 2-3.6z"/><path fill="#6e7a86" d="M194 64h13v2h-13z"/><ellipse fill="#808185" cx="97" cy="199" rx="7" ry="2"/><path fill="#fff" d="M0 154h98v20H0z"/><ellipse fill="#fff" cx="80" cy="121" rx="211" ry="6"/><path fill="#fff" d="M0 242h238v14H0z"/><ellipse fill="#c4a7b9" cx="12" cy="147" rx="3" ry="7"/><path fill="#9e9aa1" d="M6 17h32v3H6z"/><path fill="#aaa9ab" d="M244.6 10.9h-19L254-11.7v24.8z"/><ellipse fill="#bcbbbe" cx="140" cy="10" rx="119" ry="1"/><path fill="#fff" d="M70 12h4v19h-4z"/><ellipse fill="#796e13" cx="32" cy="189" rx="2" ry="2"/><ellipse fill="#fff" cx="55" cy="105" rx="155" ry="7"/><path fill="#fffffe" d="M32 24l-8 15 7-31z"/><path fill="#7f8084" d="M102 162h54v2h-54z"/><path fill="#fdfdfc" d="M36.7 110l9-21-3 59-19.1-29.3z"/><path fill="#6d9cf0" d="M203 130h28v2h-28z"/><path fill="#fdfcff" d="M143 177l5-31-11-9z"/><ellipse fill="#fff" cx="55" cy="53" rx="238" ry="5"/><path fill="#fff" d="M0 82h115v12H0z"/><path fill="#b2b5b8" d="M90 95h39v3H90z"/><ellipse fill="#fff" cx="96" cy="39" rx="95" ry="6"/><path fill="#eb584d" d="M3 4h4v4H3z"/><ellipse fill="#6cc958" rx="1" ry="1" transform="matrix(2.80477 -.2849 .25716 2.53172 32 176)"/><ellipse fill="#fff" cx="59" cy="206" rx="99" ry="5"/><path fill="#fff" d="M173 12h66v45h-66z"/><path fill="#a6949e" d="M4.8 62.4l.4-4 12 1.2-.4 4z"/><ellipse fill="#bebebf" cx="51" cy="81" rx="30" ry="1"/><path fill="#62656b" d="M119 25l2-4-5 1z"/><path fill="#fff" d="M157 155h82v52h-82zM6.4 69l-.6-43.7L-13.7-16l1.5 159.4z"/><path fill="#ccced0" d="M59 45h110v3H59z"/><path fill="#c9d3cc" d="M198 95h37v3h-37z"/><path fill="#88cf86" d="M13.9 32.3l1-2.9 11.2 4.3-1 2.9z"/><path fill="#fff" d="M34 190h205v7H34z"/><path fill="#7dc27e" d="M28.6 35.4L6.7 25.9l1-8.2.7 18.6z"/><ellipse fill="#787a7d" cx="89" cy="19" rx="32" ry="1"/><path fill="#fff" d="M56.3 135l70.8 18.3-1 24.8 5.2-44z"/><ellipse fill="#707881" cx="30" cy="130" rx="2" ry="2"/><path fill="#edefee" d="M180.8 8.8L59.2-12.1 45.7 34.8 66 8.2z"/><path fill="#dbd9dc" d="M75.8 28.2L80.3 15 47 8.1 72.3-11z"/><path fill="#fff" d="M29 27h181v4H29z"/><ellipse fill="#d0d0d2" cx="22" cy="10" rx="236" ry="2"/><path fill="#fff" d="M82 37l13 6 3 31z"/><path fill="#8f8b8e" d="M104 176h38v2h-38z"/><path fill="#b9ca64" d="M10 3h9v4h-9z"/><path fill="#898886" d="M99 161h4v3h-4z"/><path fill="#fbfcfe" d="M16.7 64.2l2.6 6.6 36.8-40.1 1.5 20.1z"/><ellipse fill="#fff" cx="50" cy="14" rx="238" ry="3"/><ellipse fill="#fff" cx="132" cy="171" rx="113" ry="4"/><ellipse fill="#fff" cx="17" cy="25" rx="115" ry="2"/><path fill="#eff2f5" d="M132 140h98v14h-98z"/><path fill="#999ea5" d="M34.6 144l.8 5-6 1-.8-5z"/><ellipse fill="#f2f6f9" cx="161" cy="224" rx="46" ry="18"/><path fill="#fff" d="M178 74h22v59h-22zM30.1 222.2L23.6 37.5 6 267l34.7-79.6z"/></g></svg>