<svg width="700" height="974" viewBox="0 0 700 974" fill="none" xmlns="http://www.w3.org/2000/svg">
<path d="M71.111 20.3302L4.12344 0L0 91.9816L70.4936 113.316L71.111 20.3302Z" transform="translate(581.677 122.811)" fill="#F5F5F5"/>
<path d="M0 0V93.5929L400.433 214.793L404.555 122.811L0 0Z" transform="translate(181.247)" fill="#F5F5F5"/>
<path opacity="0.1" d="M71.111 20.3302L4.12344 0L0 91.9816L70.4936 113.316L71.111 20.3302Z" transform="translate(581.677 122.811)" fill="black"/>
<path d="M71.111 20.3302L4.12344 0L0 91.9816L70.4936 113.316L71.111 20.3302Z" transform="translate(581.677 298.99)" fill="#3AD29F"/>
<path d="M0 0V93.5929L400.433 214.793L404.555 122.811L0 0Z" transform="translate(181.247 176.178)" fill="#3AD29F"/>
<path opacity="0.1" d="M71.111 20.3302L4.12344 0L0 91.9816L70.4936 113.316L71.111 20.3302Z" transform="translate(581.677 298.99)" fill="black"/>
<path d="M0 11.0205L10.9629 27.5325L32.9012 0" transform="translate(602.825 340.729)" stroke="white" stroke-width="7" stroke-miterlimit="10" stroke-linecap="round"/>
<g opacity="0.4">
<path opacity="0.4" d="M0 0L21.9382 38.5404" transform="translate(603.432 159.047)" stroke="white" stroke-width="7" stroke-miterlimit="10" stroke-linecap="round"/>
<path opacity="0.4" d="M27.4197 0L0 27.5325" transform="translate(603.432 164.55)" stroke="white" stroke-width="7" stroke-miterlimit="10" stroke-linecap="round"/>
</g>
<path d="M71.111 20.3302L4.12344 0L0 91.9816L70.4936 113.316L71.111 20.3302Z" transform="translate(581.677 464.161)" fill="#F5F5F5"/>
<path d="M0 0V93.5929L400.433 214.793L404.555 122.811L0 0Z" transform="translate(181.247 341.349)" fill="#F5F5F5"/>
<path opacity="0.1" d="M71.111 20.3302L4.12344 0L0 91.9816L70.4936 113.316L71.111 20.3302Z" transform="translate(581.677 464.161)" fill="black"/>
<g opacity="0.4">
<path opacity="0.4" d="M0 0L21.9382 38.5404" transform="translate(603.432 500.395)" stroke="white" stroke-width="7" stroke-miterlimit="10" stroke-linecap="round"/>
<path opacity="0.4" d="M27.4197 0L0 27.5325" transform="translate(603.432 505.899)" stroke="white" stroke-width="7" stroke-miterlimit="10" stroke-linecap="round"/>
</g>
<path opacity="0.3" d="M13.7037 55.0651C21.272 55.0651 27.4074 42.7383 27.4074 27.5325C27.4074 12.3267 21.272 0 13.7037 0C6.13536 0 0 12.3267 0 27.5325C0 42.7383 6.13536 55.0651 13.7037 55.0651Z" transform="translate(444.432 274.667)" fill="black"/>
<path opacity="0.1" d="M115.148 462.461C178.742 462.461 230.296 358.936 230.296 231.231C230.296 103.526 178.742 0 115.148 0C51.5536 0 0 103.526 0 231.231C0 358.936 51.5536 462.461 115.148 462.461Z" transform="translate(342.987 70.969)" fill="#6C63FF"/>
<path opacity="0.1" d="M63.0492 253.259C97.8706 253.259 126.099 196.565 126.099 126.63C126.099 56.6939 97.8706 0 63.0492 0C28.2281 0 0 56.6939 0 126.63C0 196.565 28.2281 253.259 63.0492 253.259Z" transform="translate(395.085 175.571)" fill="white"/>
<g opacity="0.5">
<path opacity="0.5" d="M394.159 159.651C388.529 142.692 355.061 165.613 355.061 165.613L352.308 169.332L292.814 250.083L147.049 168.266V131.684C153.913 130.921 160.549 128.756 166.549 125.321C172.549 121.887 177.785 117.256 181.935 111.713C186.086 106.171 189.063 99.834 190.683 93.093C192.304 86.352 192.533 79.3496 191.358 72.516C198.691 69.6773 204.666 63.5534 210.173 57.6405C215.247 52.2231 220.679 45.6529 220.16 38.4382C220.243 37.2857 220.177 36.1274 219.963 34.9921C218.802 28.9054 213.321 24.4675 207.518 22.3477C201.716 20.2279 195.444 19.8684 189.382 18.6288C174.938 15.79 161.889 8.21575 147.802 3.92659C141.404 1.99388 134.82 0.747277 128.16 0.207655C123.382 -0.189031 118.407 -0.189044 114.037 1.78199C109.247 3.95137 105.778 8.19094 101.926 11.7983C97.2698 16.1511 91.898 19.6616 86.0491 22.1741C77.321 25.8931 67.5306 27.4179 59.6666 32.6739C57.4829 33.9947 55.6558 35.8336 54.3455 38.0294C53.1966 40.391 52.7058 43.0212 52.9258 45.6406C52.8907 47.949 53.0644 50.2558 53.4444 52.5331C54.8269 62.252 56.4195 72.206 61.321 80.6976C65.321 87.6397 71.3084 93.1685 77.1851 98.5981L90.4073 110.772C93.0861 113.251 96.0491 116.3 99.5061 117.527C99.2839 115.916 100.197 114.218 101.555 112.569L97.2713 142.643C89.2876 140.156 80.988 138.84 72.6295 138.738C61.3703 138.601 49.9751 140.647 45.0492 148.345C44.761 148.812 44.5096 149.302 44.2962 149.808C28.7777 168.303 -6.79014 228.203 14.1234 373.687C12.3333 391.489 11.2592 402.759 11.2592 402.759L11.3827 404.544L11.2592 405.895L11.5061 406.092L23.1481 566.713L0.629603 725.016H5.62962V742.607H0V770.868C0 770.868 78.1973 765.85 90.1232 748.258C99.9998 733.667 50.8395 739.396 33.8147 741.774V730.952H34.1234V724.99H40.0618L62.5803 617.576C85.7284 577.397 73.864 476.827 73.864 476.827L102.012 493.785L124.481 611.946L107.617 787.207H112.617V799.455H106.049V827.719C106.049 827.719 184.247 822.697 196.173 805.11C206.049 790.518 156.913 796.244 139.889 798.625L138 787.207H141.444L163.988 628.904C175.099 586.015 159.95 460.165 157.95 444.048L185.827 258.896L185.432 258.363L185.827 255.748L298.432 295.342C298.432 295.342 309.691 306.648 321.271 273.028C332.086 241.616 361.752 199.505 365.592 194.138L365.999 193.567C365.999 193.567 399.788 176.609 394.159 159.651Z" transform="translate(76.7528 146.281)" fill="url(#paint0_linear)"/>
</g>
<path d="M0 11.0081V38.5282H27.4197V0L0 11.0081Z" transform="translate(87.4196 846.64)" fill="#FDA57D"/>
<path d="M0 5.50403V38.5404L27.4074 33.0365L21.9259 0L0 5.50403Z" transform="translate(191.604 907.194)" fill="#FDA57D"/>
<path d="M42.124 0C42.124 0 -23.3079 49.2385 8.92661 241.941L42.124 0Z" transform="translate(89.4685 296.374)" fill="#F55F44"/>
<path opacity="0.05" d="M42.124 0C42.124 0 -23.3079 49.2385 8.92661 241.941L42.124 0Z" transform="translate(89.4685 296.374)" fill="black"/>
<path opacity="0.05" d="M24.679 16.5121L21.9382 0L0 5.50403V16.5121H24.679Z" transform="translate(191.901 913.009)" fill="black"/>
<path opacity="0.05" d="M0 16.5244H27.4197V0L0 11.0204V16.5244Z" transform="translate(87.7283 852.443)" fill="black"/>
<path d="M5.48147 0L0 38.5404L49.3455 66.0606V11.0081L5.48147 0Z" transform="translate(175.765 263.659)" fill="#FDA57D"/>
<path d="M0 313.828L21.9383 159.666L10.358 0L152.913 38.5404C152.913 38.5404 170.53 175.571 159 220.223L137.074 374.387H104.173L120.617 203.711L98.6913 88.6592L71.2714 72.1846C71.2714 72.1846 82.8517 170.116 60.3084 209.215L38.4322 313.828H0Z" transform="translate(82.5557 549.325)" fill="#6C63FF"/>
<path d="M40.7529 6.08478C35.2716 -10.4273 2.67899 11.8987 2.67899 11.8987L0 15.5433L12.9382 39.6792L13.3456 39.1211C13.3456 39.1211 46.2344 22.5969 40.7529 6.08478Z" transform="translate(424.999 306.504)" fill="#FDA57D"/>
<path opacity="0.05" d="M87.7284 3.85535C87.7284 3.85535 43.864 -7.77252 32.9012 9.35938C21.9382 26.4913 0 257.177 0 257.177C0 257.177 65.1851 312.229 142.555 295.717L169.975 114.035L87.7284 3.85535Z" transform="translate(92.9009 295.27)" fill="black"/>
<path d="M274.16 108.401L100.852 11.1632C88.2913 4.06499 74.1643 0.229959 59.7529 0.00643464C48.7899 -0.129926 37.6914 1.86591 32.9012 9.35337C21.9382 26.4852 0 257.108 0 257.108C0 257.108 65.1851 312.161 142.555 295.649L169.975 113.893L279.641 152.433C279.641 152.433 290.604 163.441 301.864 130.715C312.395 100.12 341.283 59.1252 345.073 53.8567L332.135 29.7207L274.16 108.401Z" transform="translate(92.9009 292.276)" fill="#F55F44"/>
<path opacity="0.05" d="M0 3.04951C4.61066 8.96303 10.5022 13.7443 17.2275 17.0306C23.9529 20.3169 31.3354 22.0219 38.8147 22.0161C40.6462 22.014 42.4762 21.9105 44.2962 21.7062V11.0081L0.432107 0L0 3.04951Z" transform="translate(180.506 269.151)" fill="black"/>
<path d="M49.3455 99.097C76.5984 99.097 98.6913 76.9135 98.6913 49.5485C98.6913 22.1837 76.5984 0 49.3455 0C22.0928 0 0 22.1837 0 49.5485C0 76.9135 22.0928 99.097 49.3455 99.097Z" transform="translate(170.284 186.579)" fill="#FDA57D"/>
<path d="M0 3.85535V31.3878C0 31.3878 76.148 26.4912 87.7284 9.35937C99.3084 -7.77252 27.4197 3.85535 27.4197 3.85535H0Z" transform="translate(81.9381 876.416)" fill="#333333"/>
<path d="M0 3.85535V31.3879C0 31.3879 76.148 26.4912 87.7284 9.35937C99.3084 -7.77252 27.4197 3.85535 27.4197 3.85535H0Z" transform="translate(185.185 931.778)" fill="#333333"/>
<path opacity="0.05" d="M54.8999 99.868L74.1839 72.162C77.0358 68.0589 79.9617 63.8815 83.9617 60.8813C87.9617 57.8816 93.2702 56.208 98.0109 57.7449C100.875 58.6748 103.258 60.6584 105.69 62.4308C112.888 67.6871 121.739 71.592 130.542 70.0051C139.715 68.3441 146.764 61.1543 153.147 54.3359C158.443 48.6834 164.135 41.7413 162.677 34.1175C161.542 28.1919 156.209 23.878 150.554 21.8078C144.9 19.7376 138.801 19.4029 132.9 18.2376C118.838 15.4732 106.122 8.09735 92.4061 3.91974C86.1765 2.00404 79.7621 0.757417 73.2702 0.200806C68.6162 -0.183484 63.7643 -0.183477 59.5173 1.73797C54.8506 3.84538 51.4681 7.93618 47.7273 11.4939C43.1933 15.7276 37.964 19.1416 32.2705 21.5847C23.7767 25.2292 14.2829 26.692 6.57917 31.8117C4.45558 33.1001 2.67934 34.8922 1.40635 37.0307C-0.568952 40.7495 -0.0627706 45.1873 0.529821 49.3278C1.8755 58.7863 3.41869 68.4804 8.19647 76.7487C12.0977 83.5048 17.9125 88.8974 23.6532 94.1781L36.5298 106.042C39.1347 108.447 42.0236 111.422 45.394 112.624C44.7892 108.36 52.4681 103.401 54.8999 99.868Z" transform="translate(133.433 158.969)" fill="black"/>
<path d="M54.8999 99.868L74.1839 72.162C77.0358 68.0589 79.9617 63.8815 83.9617 60.8813C87.9617 57.8816 93.2702 56.208 98.0109 57.7449C100.875 58.6748 103.258 60.6584 105.69 62.4308C112.888 67.6871 121.739 71.592 130.542 70.0051C139.715 68.3441 146.764 61.1543 153.147 54.3359C158.443 48.6834 164.135 41.7413 162.677 34.1175C161.542 28.192 156.209 23.878 150.554 21.8078C144.9 19.7376 138.801 19.4029 132.9 18.2376C118.838 15.4732 106.122 8.09735 92.4061 3.91974C86.1765 2.00404 79.7621 0.757421 73.2702 0.20081C68.6162 -0.183479 63.7643 -0.183491 59.5173 1.73796C54.8506 3.84534 51.4681 7.93618 47.7273 11.494C43.1944 15.732 37.9647 19.1502 32.2705 21.5971C23.7767 25.2416 14.2829 26.7044 6.57917 31.8241C4.45558 33.1125 2.67934 34.9046 1.40635 37.0431C-0.568952 40.7621 -0.0627706 45.1999 0.529821 49.3404C1.8755 58.7989 3.41869 68.4926 8.19647 76.7613C12.0977 83.5174 17.9125 88.9096 23.6532 94.1907L36.5298 106.054C39.1347 108.459 42.0236 111.434 45.394 112.637C44.7892 108.372 52.4681 103.351 54.8999 99.868Z" transform="translate(133.433 157.134)" fill="#333333"/>
<g opacity="0.5">
<path opacity="0.5" d="M1.82716 0H0V10.4006H1.82716V0Z" transform="translate(4.25952 136.72)" fill="#47E6B1"/>
<path opacity="0.5" d="M1.83465 0H0V10.358H1.83465V0Z" transform="translate(10.358 140.997) rotate(90)" fill="#47E6B1"/>
</g>
<g opacity="0.5">
<path opacity="0.5" d="M1.82713 0H0V10.4006H1.82713V0Z" transform="translate(652.406 643.733)" fill="#47E6B1"/>
<path opacity="0.5" d="M1.83465 0H0V10.358H1.83465V0Z" transform="translate(658.506 648.011) rotate(90)" fill="#47E6B1"/>
</g>
<g opacity="0.5">
<path opacity="0.5" d="M1.82717 0H0V10.4006H1.82717V0Z" transform="translate(607.395 423.016)" fill="#47E6B1"/>
<path opacity="0.5" d="M1.83465 0H0V10.358H1.83465V0Z" transform="translate(613.491 427.294) rotate(90)" fill="#47E6B1"/>
</g>
<g opacity="0.5">
<path opacity="0.5" d="M1.82717 0H0V10.4006H1.82717V0Z" transform="translate(529.418 634.674)" fill="#47E6B1"/>
<path opacity="0.5" d="M1.83465 0H0V10.358H1.83465V0Z" transform="translate(535.518 638.948) rotate(90)" fill="#47E6B1"/>
</g>
<g opacity="0.5">
<path opacity="0.5" d="M1.82713 0H0V10.4006H1.82713V0Z" transform="translate(474.592 767.416)" fill="#47E6B1"/>
<path opacity="0.5" d="M1.83472 0H0V10.358H1.83472V0Z" transform="translate(480.677 771.701) rotate(90)" fill="#47E6B1"/>
</g>
<g opacity="0.5">
<path opacity="0.5" d="M1.82715 0H0V10.4006H1.82715V0Z" transform="translate(82.2468 297.601)" fill="#47E6B1"/>
<path opacity="0.5" d="M1.83469 0H0V10.358H1.83469V0Z" transform="translate(88.3333 301.891) rotate(90)" fill="#47E6B1"/>
</g>
<path opacity="0.5" d="M7.49991 4.14654C6.99843 3.92474 6.59554 3.52563 6.36795 3.0251C6.14032 2.52457 6.1038 1.9575 6.26536 1.4317C6.27484 1.34934 6.27484 1.26615 6.26536 1.18378C6.27717 0.943751 6.21232 0.706214 6.08029 0.505773C5.94825 0.305329 5.75595 0.152463 5.53136 0.0694481C5.30673 -0.0135668 5.06162 -0.0223999 4.83166 0.0442526C4.60173 0.110905 4.39899 0.249549 4.25299 0.439982C4.20321 0.509191 4.16173 0.584104 4.12955 0.663128C3.90866 1.16669 3.51119 1.5712 3.01271 1.79976C2.51423 2.02831 1.94948 2.06497 1.42584 1.90277H1.17895C0.939906 1.89091 0.70334 1.95599 0.503718 2.08856C0.304097 2.22113 0.151839 2.41425 0.0691636 2.63978C-0.0135113 2.8653 -0.0223081 3.11144 0.0440714 3.34233C0.110451 3.57322 0.248545 3.77679 0.438199 3.92337C0.507125 3.9734 0.581714 4.01499 0.660414 4.04736C1.16192 4.26916 1.56477 4.66824 1.79239 5.16876C2.02 5.66931 2.05652 6.23638 1.89498 6.76216C1.88549 6.84456 1.88549 6.92774 1.89498 7.0101C1.88316 7.25012 1.94802 7.48766 2.08004 7.68809C2.21207 7.88855 2.40438 8.04143 2.62898 8.12442C2.85358 8.20746 3.09872 8.21627 3.32866 8.14961C3.55861 8.08298 3.76133 7.94433 3.90733 7.7539C3.95714 7.68468 3.99859 7.60976 4.03081 7.53077C4.25166 7.02717 4.64914 6.62269 5.14762 6.39411C5.6461 6.16557 6.21084 6.12891 6.73451 6.29112H6.9814C7.22043 6.30297 7.45699 6.23786 7.65662 6.10528C7.85625 5.97274 8.0085 5.7796 8.09117 5.5541C8.17384 5.32856 8.18265 5.08239 8.11625 4.85152C8.04988 4.62065 7.9118 4.41707 7.72214 4.27049C7.65321 4.22046 7.57862 4.17887 7.49991 4.14654Z" transform="translate(103.191 131.533)" fill="#4D8AF0"/>
<path opacity="0.5" d="M7.49984 4.14654C6.99832 3.92474 6.59551 3.52564 6.36791 3.02511C6.14029 2.52457 6.10373 1.9575 6.26529 1.43171C6.27477 1.34934 6.27477 1.26615 6.26529 1.18378C6.2771 0.943755 6.21232 0.706217 6.08029 0.505777C5.94825 0.305333 5.75588 0.152457 5.53129 0.0694426C5.30666 -0.0135724 5.06158 -0.022396 4.83162 0.0442567C4.6017 0.110909 4.39892 0.249562 4.25292 0.439996C4.20314 0.509206 4.1617 0.584108 4.12951 0.663131C3.90862 1.1667 3.51119 1.57121 3.01271 1.79976C2.51423 2.02832 1.94944 2.06498 1.4258 1.90278H1.17887C0.939832 1.89091 0.703265 1.956 0.503644 2.08857C0.304022 2.22115 0.151839 2.41427 0.0691636 2.63979C-0.0135113 2.86531 -0.0223081 3.11146 0.0440714 3.34235C0.110451 3.57324 0.248507 3.77679 0.438162 3.92341C0.507088 3.9734 0.581673 4.01503 0.660373 4.04736C1.16188 4.26916 1.56477 4.66824 1.79239 5.1688C2.02 5.66931 2.05648 6.23638 1.89494 6.76219C1.88545 6.84456 1.88545 6.92774 1.89494 7.0101C1.88312 7.25012 1.94797 7.48769 2.08 7.68812C2.21203 7.88855 2.40434 8.04143 2.62894 8.12442C2.85354 8.20746 3.09864 8.21627 3.32859 8.14965C3.55853 8.08298 3.76129 7.94433 3.90729 7.7539C3.9571 7.68468 3.99851 7.60976 4.0307 7.53077C4.25159 7.02717 4.6491 6.62269 5.14758 6.39415C5.64606 6.16557 6.21077 6.12891 6.73443 6.29112H6.98136C7.22039 6.30297 7.45695 6.2379 7.65658 6.10532C7.85621 5.97274 8.00847 5.7796 8.09113 5.5541C8.1738 5.32856 8.18262 5.08243 8.11621 4.85152C8.04984 4.62065 7.9118 4.41707 7.72213 4.27049C7.65321 4.2205 7.57854 4.17887 7.49984 4.14654Z" transform="translate(514.536 39.5641)" fill="#4D8AF0"/>
<path opacity="0.5" d="M7.49988 4.14654C6.99836 3.92474 6.59551 3.52564 6.36791 3.0251C6.14029 2.52457 6.10377 1.9575 6.26532 1.4317C6.2748 1.34934 6.2748 1.26616 6.26532 1.1838C6.27714 0.943773 6.21232 0.706232 6.08029 0.505792C5.94825 0.305348 5.75592 0.152463 5.53132 0.0694481C5.30669 -0.0135668 5.06162 -0.0223999 4.83166 0.0442526C4.60173 0.110905 4.39899 0.249568 4.25299 0.440004C4.20321 0.50921 4.16173 0.584104 4.12955 0.663128C3.90866 1.16669 3.51119 1.5712 3.01271 1.79976C2.51423 2.02831 1.94948 2.06497 1.42584 1.90277H1.17891C0.939869 1.89091 0.703303 1.95599 0.503681 2.08856C0.304059 2.22113 0.151839 2.41427 0.0691636 2.63979C-0.0135113 2.86532 -0.0223081 3.11147 0.0440714 3.34235C0.110451 3.57324 0.248507 3.77683 0.438162 3.92341C0.507088 3.9734 0.581714 4.01503 0.660414 4.04736C1.16192 4.26916 1.56477 4.66828 1.79239 5.1688C2.02 5.66931 2.05652 6.23638 1.89498 6.76219C1.88549 6.84456 1.88549 6.92774 1.89498 7.0101C1.88316 7.25012 1.94797 7.48766 2.08 7.68812C2.21203 7.88855 2.40438 8.04143 2.62898 8.12446C2.85358 8.20746 3.09868 8.21631 3.32862 8.14965C3.55857 8.08298 3.76129 7.94433 3.90729 7.7539C3.9571 7.68468 3.99855 7.6098 4.03077 7.53077C4.25162 7.02721 4.6491 6.62269 5.14758 6.39415C5.64606 6.16557 6.2108 6.12891 6.73447 6.29112H6.9814C7.22043 6.30301 7.45699 6.23786 7.65662 6.10528C7.85625 5.97274 8.00847 5.77964 8.09113 5.5541C8.1738 5.32856 8.18262 5.08243 8.11621 4.85156C8.04984 4.62065 7.9118 4.41707 7.72213 4.27049C7.65321 4.2205 7.57858 4.17887 7.49988 4.14654Z" transform="translate(8.88281 366.842)" fill="#4D8AF0"/>
<path opacity="0.5" d="M7.49991 4.14658C6.9984 3.92478 6.59554 3.52564 6.36792 3.0251C6.14032 2.52457 6.1038 1.95753 6.26532 1.43174C6.2748 1.34937 6.2748 1.26616 6.26532 1.1838C6.27714 0.943773 6.21232 0.706232 6.08029 0.505792C5.94829 0.305348 5.75592 0.152463 5.53132 0.0694481C5.30673 -0.0135668 5.06158 -0.0223999 4.83166 0.0442526C4.6017 0.110905 4.39896 0.24953 4.25299 0.439963C4.20318 0.509173 4.16173 0.584145 4.12951 0.663169C3.90862 1.16673 3.51117 1.5712 3.01269 1.79976C2.51421 2.02831 1.94949 2.06501 1.42585 1.90281H1.17892C0.939884 1.89095 0.703317 1.95599 0.503695 2.08856C0.304075 2.22113 0.151816 2.41431 0.0691417 2.63983C-0.0135333 2.86536 -0.0222925 3.11147 0.044087 3.34235C0.110467 3.57324 0.248523 3.77679 0.438177 3.92337C0.507103 3.97337 0.581692 4.01503 0.660392 4.04736C1.16189 4.26916 1.56475 4.6682 1.79236 5.16876C2.01998 5.66928 2.05649 6.23638 1.89496 6.76219C1.88546 6.84456 1.88546 6.92777 1.89496 7.01014C1.88314 7.25016 1.94799 7.48769 2.08002 7.68816C2.21205 7.88859 2.40436 8.04139 2.62896 8.12442C2.85356 8.20742 3.09869 8.21627 3.32864 8.14961C3.55858 8.08295 3.76133 7.94433 3.90729 7.7539C3.9571 7.68468 3.99855 7.6098 4.03077 7.53077C4.25166 7.02721 4.6491 6.62265 5.14758 6.39411C5.64606 6.16554 6.21084 6.12891 6.73447 6.29112H6.9814C7.22043 6.30301 7.45703 6.23786 7.65662 6.10528C7.85625 5.97274 8.00847 5.77964 8.09113 5.5541C8.17384 5.32856 8.18262 5.08239 8.11625 4.85152C8.04988 4.62061 7.91176 4.41707 7.7221 4.27049C7.65317 4.2205 7.57858 4.17891 7.49991 4.14658Z" transform="translate(25.3274 598.073)" fill="#4D8AF0"/>
<path opacity="0.5" d="M3.65432 7.33871C5.67255 7.33871 7.30862 5.69587 7.30862 3.66935C7.30862 1.64283 5.67255 0 3.65432 0C1.6361 0 0 1.64283 0 3.66935C0 5.69587 1.6361 7.33871 3.65432 7.33871Z" transform="translate(303.395 163.026)" fill="#F55F44"/>
<path opacity="0.5" d="M3.6543 7.33867C5.67251 7.33867 7.30862 5.69583 7.30862 3.6693C7.30862 1.64277 5.67251 0 3.6543 0C1.63608 0 0 1.64277 0 3.6693C0 5.69583 1.63608 7.33867 3.6543 7.33867Z" transform="translate(402.085 642.011)" fill="#4D8AF0"/>
<path opacity="0.5" d="M3.6543 7.33871C5.67251 7.33871 7.30865 5.69587 7.30865 3.66935C7.30865 1.64283 5.67251 0 3.6543 0C1.63608 0 0 1.64283 0 3.66935C0 5.69587 1.63608 7.33871 3.6543 7.33871Z" transform="translate(626.888 262.122)" fill="#4D8AF0"/>
<path opacity="0.5" d="M3.65427 7.33867C5.67247 7.33867 7.30862 5.69587 7.30862 3.66933C7.30862 1.64281 5.67247 0 3.65427 0C1.63605 0 0 1.64281 0 3.66933C0 5.69587 1.63605 7.33867 3.65427 7.33867Z" transform="translate(692.691 427.294)" fill="#47E6B1"/>
<path opacity="0.5" d="M3.6543 7.33871C5.67251 7.33871 7.30862 5.69587 7.30862 3.66935C7.30862 1.64282 5.67251 0 3.6543 0C1.63608 0 0 1.64282 0 3.66935C0 5.69587 1.63608 7.33871 3.6543 7.33871Z" transform="translate(447.777 10.7107)" fill="#F55F44"/>
<defs>
<linearGradient id="paint0_linear" x2="1" gradientUnits="userSpaceOnUse" gradientTransform="translate(0.0123456 17.5013) scale(394.777 396.4)">
<stop stop-color="#808080" stop-opacity="0.25"/>
<stop offset="0.54" stop-color="#808080" stop-opacity="0.12"/>
<stop offset="1" stop-color="#808080" stop-opacity="0.1"/>
</linearGradient>
</defs>
</svg>
